<svg id="Layer_1" data-name="Layer 1" xmlns="http://www.w3.org/2000/svg" width="24.9in" height="46.67in" viewBox="0 0 1793.14 3360.24">
  <defs>
    <style>
      .cls-1 {
        fill: #ffcc02;
      }
    </style>
  </defs>
  <path class="cls-1" d="M487.59,1797.07c.49-7.11.44-14.25.22-21.41l-.87,14.75c-.74,12.6-1.31,25.22-2.26,37.8-1.16,15.56-2.36,31.12-4,46.63l5.2-41.4C484,1821.47,486.77,1809.1,487.59,1797.07Z"/>
  <path class="cls-1" d="M487.59,1769.56c-.1,1.81-.21,3.61-.31,5.37l.69,9.7C488,1779.61,487.8,1774.59,487.59,1769.56Z"/>
  <path class="cls-1" d="M1401.38,957.17a46.06,46.06,0,0,0-4.45-11c-6.4-11.93-16.1-21.12-25.77-30.29a16.89,16.89,0,0,0-5-3.23c-1.78-.76-3.93-1.56-5.7-1.21-2,.41-3.71,2.07-5.64,3.24-4.42-4.89-8.86-9.86-13.42-14.7-28.39-30-61.21-54.33-97.39-74a542.65,542.65,0,0,0-132-50.8,685.86,685.86,0,0,0-140.1-18.59,524.85,524.85,0,0,0-63.81,2.24,594.73,594.73,0,0,0-85.56,13.79,506.67,506.67,0,0,0-104.16,37.13,425.43,425.43,0,0,0-65,39A413.2,413.2,0,0,0,598,897.53,391,391,0,0,0,564.37,938a386.72,386.72,0,0,0-46.7,84.59c-5,12.66-9.36,25.61-13.64,38.54-8.41,25.34-13,51.56-17.55,77.79-13.41,42.17-27.21,243.43-26.73,269.71,0,4.67-.13,9.34,0,14,.24,8.31.79,16.6.88,24.9,0,4.92.78,9.93-1,15.44-8-3.4-14.19-9-20.82-13.74-6.47-4.69-12.73-9.69-18.92-14.69-6.44-5.22-12.48-11-19.09-16-6.44-4.88-11.57-11.43-19.24-14.82,11,13.18,24.18,24,37.66,34.52,13.9,10.78,28,21.34,42.15,32.15.45,9.67.82,19.27,1.38,28.88s1.3,19.22,2,28.82c.73,9.93,1.69,19.85,2.21,29.79.49,9.46,2.71,18.9,1.11,29.19a59.62,59.62,0,0,1-6.09-2.78c-6.81-4.17-13.58-8.42-20.33-12.69-23.35-14.77-46.46-29.89-67.9-47.4-8.58-7-16.57-14.44-20.9-25-.29-.73-1.43-1.1-2.57-1.92-1.13,5.24,1.24,9,4.16,12,6.9,7.18,13.83,14.43,21.41,20.86,17,14.42,35.91,26.42,54.67,38.42,12.86,8.25,25.8,16.4,38.42,24.4,3.34,17.07,9.36,100.78,7.73,108.46-2.83-1-5.71-1.71-8.39-2.89-20.41-9-40.93-17.69-61.1-27.18-18.67-8.78-37.05-18.14-54.14-29.95-22.83-15.78-42.46-34.23-54.21-59.94a27.53,27.53,0,0,0-3.17-4.41c-1.17,2.07-1.13,3.58-.57,4.87,6,13.58,14.71,25.21,24.87,35.92,18.59,19.58,40.59,34.55,64.6,46.28,25.42,12.37,51.39,23.64,77.13,35.37,5.38,2.47,10.93,4.81,16.38,7.21a41.81,41.81,0,0,1,1.45,6.14q1.16,15.41,2.15,30.8c1.08,16.57,2,33.15,3.08,49.72.67,9.89,1.59-2.64,2.53-18.45l-.15-2c-.63-8.82-1.36-17.64-1.95-26.46a133.44,133.44,0,0,1-1.31-17.34c-.65-6.26-1.22-12.66-.19-19.48,173.3,69.9,327.11,169.2,463,295.92,0,3.52-.22,6.19.06,8.81a7.68,7.68,0,0,0,5.42,6.58,8,8,0,0,0,8.36-1.85c4.77-4.32,2.84-13.65-3.33-15.65-2.11-.67-4.58-.31-8.11-.48-68.41-63-141.17-120.12-219.47-170.57s-161.39-91.6-247.12-127.46c-.54-4.35-1.11-7.94-1.41-11.55-1.26-15.55-2.41-31.11-3.67-46.66-1.06-13.24-2.31-26.45-3.25-39.69-.2-2.78-1-5.94,1.71-8.65,4.31.81,7.67,3.68,11.26,5.89,25.78,15.9,51.42,32,77.21,47.91,21,12.92,41.54,26.52,60.89,41.81,7.23,5.72,15.26,10.63,20.73,18.4.55.78,2.18.8,4.47,1.56-.73-2.29-.74-3.83-1.5-4.48-8.32-7.07-16.63-14.28-25.32-20.92-34.18-26.1-71.15-48-107.6-70.67-14.11-8.77-28.31-17.37-42.19-25.88a50.4,50.4,0,0,1-1.38-6.43q-3.74-51.68-7.34-103.35a50.14,50.14,0,0,1,.21-6,1.69,1.69,0,0,1,.35-.93c.16-.22.43-.32,1.43-.89,1.87,1.12,4.14,2.33,6.25,3.78,42.64,29.1,87.25,55.06,130.89,82.57,41.67,26.28,83,53,121.68,83.74,20.84,16.52,41.19,33.64,60.46,52a718.38,718.38,0,0,1,67.81,74.5,30.24,30.24,0,0,0,4.13,3.63c.5-.87.86-1.27.78-1.4a60.64,60.64,0,0,0-4.25-6.63c-16.42-20.13-33.24-39.88-51.87-58-7.44-7.19-15-14.15-22.45-21.3-20.37-19.65-42.18-37.6-64.6-54.84-38.06-29.26-78.49-55-119.16-80.39q-60.12-37.53-119.93-75.61c-4.46-2.84-8.55-6.16-12.46-9-.46-13.49-1-26.11-1.27-38.74-.25-12-.38-24,0-36,.38-13,.51-26,2.38-38.79,2.26-72.67,14.13-175.25,38.39-281.26,10.09-34.28,23.1-67.28,41-98.36a386.24,386.24,0,0,1,110-122.3,437.72,437.72,0,0,1,76.62-44.73,499.19,499.19,0,0,1,101.24-33.42A598.64,598.64,0,0,1,955.37,760c10,0,19.9.54,29.9,1,12.94.6,26,.69,38.8,2.24,35.7,4.3,71.08,10.24,105.71,20.14a562.51,562.51,0,0,1,81.42,29.88,457.36,457.36,0,0,1,71.94,41c25.7,18.14,49.22,38.59,69.22,63a54.37,54.37,0,0,1,9.92,19.3c1.82,6,3.67,12.22,6.67,17.66,4.9,8.79,12.21,14.95,23.11,14.79C1399.38,968.9,1403.09,964.38,1401.38,957.17Z"/>
  <path class="cls-1" d="M487.54,1720.53c-.06-3.72-.14-4.93-.25-2.2,0,.77-.05,1.53-.08,2.3Z"/>
  <path class="cls-1" d="M487.12,1757.78c-.37-1.84-.72-3.69-1-5.54-.27,6.3-.57,12.6-1,18.89-.82,13.26-1.91,26.5-2.82,39.75-.77,11.26-1.16,22.56-2.24,33.79q-2,20.91-4.11,41.8c-4.62,22.46-9.39,44.88-14.66,67.17-6.58,27.8-14.4,55.37-21.81,83-10.28,38.28-22.33,76-35.55,113.38a33.92,33.92,0,0,1-2,4c-4.91,0-9.25-.2-13.57,0a28,28,0,0,0-17.18,7c-8.66,7.29-11.41,21.43-6.41,33.14,7.09,16.73,20.22,27.15,37.92,30.9,9,1.9,17.24-1,22.92-8.78a75,75,0,0,0,7.79-12.69c1.47-3.21,2.71-7.24,2.12-10.56-2.59-14.48-7.54-27.7-22.54-34.19-2.31-1-4.46-2.4-6.79-3.68,2-6.14,3.81-11.52,5.55-16.9,7.9-24.38,16.31-48.61,23.58-73.17q21.13-71.1,36.95-143.55c-.34,3.1-.67,6.2-1,9.3-7,62.09,22.28-131.18,9.89-69.91l-1.26,6.26,8-76c0-.18,0-.35,0-.53,0-4-.08-9.42-.11-15.61C487.61,1769.28,487.33,1763.53,487.12,1757.78Z"/>
  <path class="cls-1" d="M431.16,2283.35c13.14-13.56,20.81-30.56,27.85-47.73a383.49,383.49,0,0,0,21.33-70.37c2.41-12.07.66-46.83-1.42-59,0,0,15.28-17.64,32.95-25.64a53.45,53.45,0,0,1,23.13-5.2c9.63.15,19.24-.42,28.69,2.43,15.29,4.61,27.26,13.45,35.73,27,5.38,8.6,6.34,18.17,5.21,27.89a59.61,59.61,0,0,1-4,16.37c-5.2,12.31-12.07,23.74-21.58,33.29-8.43,8.48-17.17,16.66-25.74,25a12.81,12.81,0,0,0-1.37,2.52c1.31,2.78,2.7,6.12,4.39,9.3a119.5,119.5,0,0,1,14.31,50.34c1.57,30.27-16.57,54.38-45.41,60.24-17.77,3.61-34.1.08-50.18-7.22-17.78-8.07-31.34-21-42.85-36.34a9.28,9.28,0,0,1-1-1.72A3.42,3.42,0,0,1,431.16,2283.35Z"/>
  <path class="cls-1" d="M369,2094.78c-.48,2.27-.46,4.39-1.4,5.92a21.23,21.23,0,0,1-4.78,5.05c-18.32,15.45-32.12,34.41-43.09,55.56-7,13.44-10.61,27.91-12.16,42.84-.92,9,.84,17.85,2.92,26.56,5.17,21.6,16.43,39.79,31.84,55.53,2.09,2.13,4.72,3.72,7.35,5.75-8.21,15.21-17.27,27.72-31.93,34.72-15.62,7.45-28.78,2.49-39.15-8a59.56,59.56,0,0,1-16.45-31.27c-1.15-6,.74-11.12,1.14-16.86-3.61-2.11-7.07-.53-10.55.13-14.15,2.69-27.91,1.22-40.76-5.22-27.44-13.76-38.14-45.7-26.05-73,8.59-19.43,24.12-31.4,43.2-39.17,8.23-3.35,16.88-5.66,25.95-8.64a50.34,50.34,0,0,0-3.73-3.43c-18.75-14-17.07-38.51-4.53-53,12-13.83,27.22-20.41,45.58-21,23.55-.72,44.37,7,64,19C360.31,2088.78,364,2091.52,369,2094.78Z"/>
  <path class="cls-1" d="M862.76,224.19c-.63,27.23-5,49.83-16,70.91a63.39,63.39,0,0,1-15.63,19.24c-9,7.67-19.43,8.34-29.95,3.85a136.1,136.1,0,0,1-22.06-11.53c-21.27-14.26-39.12-31.92-51.29-54.78-8-15-12.31-31-10.74-47.92,1.63-17.72,9.11-33.19,21-46.38,4.24-4.68,9-8.94,13.37-13.47A20.14,20.14,0,0,1,762,138.73a67.36,67.36,0,0,1,8.78-1.7c12.91-1.25,25.78-2.15,38.63,1.07,16,4,27.87,13.66,36.92,27,7.77,11.48,11.86,24.47,14.07,38C861.76,211.29,862.29,219.58,862.76,224.19Z"/>
  <path class="cls-1" d="M1321.93,293.4c-.82-2.64-3.63-3.17-4.5-6-1.22-.27-3.27-6.93-4.54-7.07-18.3-2-33.07-2.08-49.67-10.18-12.85-6.28-23.38-15-30.14-27.94a43,43,0,0,1-4.63-17.16c-1.47-20.13,5.84-37.26,18.37-52.28a103.67,103.67,0,0,1,21.43-19.38,54.23,54.23,0,0,1,36.94-9.23c10.43,1,17.41,7.81,22.89,16,5,7.58,7,16.46,8.79,25.25.94,4.51,1.49,9.1,2.29,14.17,5.67-1.54,11-3.15,16.38-4.42,10-2.36,20-4.76,30.41-4.64,7,.07,13,2,18,7.7.75,2.59,1.58,5.44,2.66,9.18-1.56,5-2.87,10.83-5.23,16.24-5.8,13.26-14.8,24.43-24.44,35-5.59,6.16-11.68,11.89-17.63,17.71a89,89,0,0,1-22.84,16C1332.11,294.53,1327.72,295.45,1321.93,293.4Z"/>
  <path class="cls-1" d="M1070.33,316.4c-15.66,1.43-27.37-5.14-38.45-12.55-15.78-10.56-27.21-25.31-36.86-41.45a110.4,110.4,0,0,1-15.7-49.92A52,52,0,0,1,986,183.71c5-8.93,12.84-15,22.21-19.23,8.57-3.83,16.83-4.61,25.81-.46a103.38,103.38,0,0,1,27.27,18c24.65,22.66,37.23,51.42,43.09,83.55,1.77,9.68,3.73,19.63.68,29.55-.88,2.86-1.27,5.93-2.58,8.56-1.12,2.26-2.84,5.08-5,5.87C1088.25,313,1079.61,319.17,1070.33,316.4Z"/>
  <path class="cls-1" d="M866.52,2214.36c-12.68,4.08-46.13,26-71.21,46.38-22.22,18-43.6,36.91-62,59-18,21.71-34.9,44.23-49.57,68.43l-1.81-.84c.09-1-.17-2.28.31-3.06,13.24-21.59,27.48-42.46,44.45-61.33,9.76-10.87,19.23-22.07,29.66-32.27a498,498,0,0,1,81-64.47,515.35,515.35,0,0,1,125.59-58,546.73,546.73,0,0,1,106.37-21.63,509.32,509.32,0,0,1,67.75-2.77,558.87,558.87,0,0,1,74.27,7.52,469.3,469.3,0,0,1,95.06,26.3,434.6,434.6,0,0,1,91.26,49,415.86,415.86,0,0,1,61.66,53.63,404.12,404.12,0,0,1,60.42,82.71,429.35,429.35,0,0,1,35.57,84.63,503.2,503.2,0,0,1,19.59,101.66c2,23.56,3.5,47.13,2.74,70.73-.66,20.57-2.08,41.13-4,61.63-4,42.82-12.2,84.93-22.86,126.53-6.2,24.15-13.63,48-20.52,72-.35,1.23-.76,2.44-1.1,3.53,16.55,12.56,20.95,24.09,14,37.18-6,11.44-17,15.66-29.65,12.86-12.19-2.7-19.62-14.86-18.25-28.4,1.32-13,11.06-20.53,28.64-22,10.09-15.35,41-141.16,40.93-165.92-.29-.17-.57-.36-.86-.51a4.18,4.18,0,0,0-.89-.4,4.24,4.24,0,0,0-1-.1l-1-.07H871.23a3.44,3.44,0,0,1-1-.1,4.79,4.79,0,0,1-1-.2,2.2,2.2,0,0,1-.55-.34,7.22,7.22,0,0,1-.94-.89,2.57,2.57,0,0,1-.28-.93c-.09-.65-.17-1.32-.2-2s0-1.33,0-2V2217.93a7.92,7.92,0,0,0-.23-2C866.92,2215.58,866.8,2215.27,866.52,2214.36Zm2.48-2.56v487.75c0,2.67-.1,5.34,0,8,.09,1.91.5,3.81.78,5.82,4.61,1.91,9,1.14,13.21,1.14h670c2.34,0,4.68.1,7,0,1.91-.11,3.8-.51,5.53-.76a17.32,17.32,0,0,0,1.3-3.26c2-15.79,4.51-31.53,5.72-47.37,1.24-16.23,1.45-32.57,1.62-48.86.12-11.63-.36-23.27-.94-34.89-.64-12.6-1.35-25.23-2.64-37.77a518.22,518.22,0,0,0-15.4-81.26,456.27,456.27,0,0,0-33.91-87.29,357.18,357.18,0,0,0-33.87-54.1c-8-10.61-15.72-21.61-24.92-31.12-15.49-16-31.38-31.66-49.17-45.28-18.82-14.4-38.36-27.72-59.19-38.88a460.52,460.52,0,0,0-112.62-42.76,508.55,508.55,0,0,0-171.34-10.87,538.31,538.31,0,0,0-147.78,36.35A444.28,444.28,0,0,0,869,2211.8Z"/>
  <path class="cls-1" d="M542.16,365.81a44.13,44.13,0,0,1-4.27,25.2c-9.58,19.73-33.71,27.81-52.43,7.46-6.83-7.42-14.38-13.54-22.1-19.79-13.42-10.87-26.3-22.41-36.58-36.47A68.67,68.67,0,0,1,416.07,321c-4.85-16.5,1.24-27.11,11.2-34,16.42-11.41,34.74-11,51.39-.7,11.44,7.09,20.64,16.84,28.78,27.35A457.4,457.4,0,0,1,542.16,365.81Z"/>
  <path class="cls-1" d="M1606.56,2715.62c2.59-22.21,5.23-44.29,7.73-66.39a527.3,527.3,0,0,0,3-69.73c-.67-35.63-3.85-71-10.73-106a465.3,465.3,0,0,0-25.73-85.9c-15.79-38.73-36.66-74.65-63.58-106.85-7.46-8.92-14.89-17.93-23-26.2a443.36,443.36,0,0,0-49-42.47,452.54,452.54,0,0,0-67.06-41.33,445.18,445.18,0,0,0-55.08-23.38,554.45,554.45,0,0,0-112.51-26.53c-13.82-1.77-27.76-2.88-41.68-3.43-19.61-.79-39.3-1.66-58.9-.88a620.62,620.62,0,0,0-69.38,6.63,628.22,628.22,0,0,0-144.78,40.41,546.78,546.78,0,0,0-122.12,69.35c-24.4,18.48-47.81,38.25-68,61.5-15.26,17.58-30,35.53-43.14,55.49,3.6,8.17,4,10.9.85,20.1-11.23,11.59-29.61,19.39-44.08,16.6-14-2.33-17.62-19-8.93-29.94,10.6-6.64,30.55-10.42,48.75-8.45,1.65-2.14,3.13-3.92,4.45-5.81,17.94-25.73,37.8-49.87,60.49-71.56a534.32,534.32,0,0,1,110.5-81.6,598.6,598.6,0,0,1,89.92-40.68,555.63,555.63,0,0,1,87.62-23.7c17.32-3.13,34.73-5.91,52.18-8.19,11.83-1.55,23.79-2.29,35.72-2.79,16-.66,31.94-1,47.91-1,35.35.11,70.25,4.61,104.87,11.52a533.59,533.59,0,0,1,70.25,19.27,478.48,478.48,0,0,1,72.75,32.71,426.39,426.39,0,0,1,59.13,38.88c9.39,7.39,18.27,15.49,27,23.7,9.43,8.88,18.86,17.84,27.42,27.54,9.66,10.95,18.79,22.45,27.4,34.27,25.66,35.28,44.7,74,58.23,115.42a536.49,536.49,0,0,1,22.44,104.2c1.43,12.18,1.73,24.5,2.3,36.78.52,11,.79,21.94,1,32.91.54,28-2.18,55.76-5.39,83.49-1.34,11.55-3,23.07-4.72,34.57-.75,5-1.6,9.72.58,14.63a6.21,6.21,0,0,1-2.23,8c-3.2,2.3-7.6,2-10-.79a7.41,7.41,0,0,1,.42-10C1601,2718.42,1603.32,2717.54,1606.56,2715.62Z"/>
  <path class="cls-1" d="M326.88,701.25c-5.05-9.71-8.9-19.37-10.43-29.52a97.41,97.41,0,0,1-.38-24.78c1.15-10.53,12.46-19.44,24.07-20.28,3-.21,6,0,7.52,0,7.49,2.8,13.56,5.47,19.86,7.35,10.6,3.15,15.15,11.2,17.68,20.89.54,2.07-.14,4.6-.74,6.78-4.87,17.59-15.75,30.55-31.52,39.27C344.72,705.43,336,706.43,326.88,701.25Z"/>
  <path class="cls-1" d="M216.48,858.94c-1.6-2.22-3.24-4-4.24-6a7,7,0,0,1,2.33-8.86,7.57,7.57,0,0,1,8.45.17,6.55,6.55,0,0,1,2.21,8.8c-1,2-2.92,3.48-5,5.92-.35,8.46-.92,17.72-1.11,27-.43,22.29-1.07,44.58-.9,66.87q.22,32.37,2.66,64.69c1.88,25.51,4.4,50.92,8.27,76.2,5.14,33.57,12.22,66.76,22.68,99.08,11.08,34.26,24.71,67.54,42.59,98.85a464.6,464.6,0,0,0,46.13,66.23c5.52,6.65,11.51,12.9,17.22,19.39a65.92,65.92,0,0,1,4,5.82c-5.1-1.49-6.93-4.37-9.07-6.63A457.41,457.41,0,0,1,315,1330.1a394.69,394.69,0,0,1-33.87-56.38c-14.8-29.85-27.42-60.61-36.44-92.78a743.54,743.54,0,0,1-22.59-112.34c-2.48-20.75-3.84-41.63-5.47-62.47-2.58-32.87-2.17-65.83-1.94-98.77.1-12.93,1.23-25.86,1.82-38.79C216.6,865.59,216.48,862.59,216.48,858.94Z"/>
  <path class="cls-1" d="M800.55,2239.58a19,19,0,0,0,3.25,6.75,47.76,47.76,0,0,0,6.3,7.52,31.54,31.54,0,0,0,6.74,3.92,16.18,16.18,0,0,1,.37,5.84,8.18,8.18,0,0,1-1.17,3.21,15.86,15.86,0,0,1-2.46,3.36,8.71,8.71,0,0,1-5.75,2.53,5.06,5.06,0,0,1-3.53-1.29,7.28,7.28,0,0,1-1.54-1.64,13.5,13.5,0,0,1-2.1-5c-.31-1.62-.57-3.27-.85-4.9a2.31,2.31,0,0,0-.18-.35c-.42,0-.9-.09-1.38-.1a14.63,14.63,0,0,1-6.75-1.74c-3.53-1.91-4.86-5.82-3.32-9.78a12.56,12.56,0,0,1,4.63-5.68,15.77,15.77,0,0,1,7.35-2.75h.26Z"/>
  <path class="cls-1" d="M398.27,1418.63c-4.66-3.32-9-6.93-13.32-10.66s-8.45-7.55-12.52-11.5-8-8-11.85-12.22c-1.92-2.08-3.77-4.24-5.61-6.42a76,76,0,0,1-5.13-6.86c4.36,3.68,8.74,7.27,12.94,11.07s8.43,7.59,12.49,11.59,8,8,11.89,12.14A169.81,169.81,0,0,1,398.27,1418.63Z"/>
  <path class="cls-1" d="M944.14,1983.56c0-3.86,0-11.56-3.86-10.79s-18.49,17.72-17.72,25.42S944.14,1983.56,944.14,1983.56Z"/>
  <path class="cls-1" d="M1592.73,2492.14c-9.53,12.54-2.27,85.59,5.43,95.7s39.88,36.24,64.19,3.76c8.6-11.5-16.75-87-25.68-102S1605.65,2475.11,1592.73,2492.14Z"/>
  <path class="cls-1" d="M1607.5,2643.88c-7.52,1.85-16.48,13.66-13,24.37s43.38,10.76,46,10.3,12.29-25.32,4.37-29.05S1622.49,2640.19,1607.5,2643.88Z"/>
  <path class="cls-1" d="M1562.21,2398.73c1.18,11.78-1.64,38.57,24.06,51.45s59.5-24.57,60.2-35c.87-13.06-21.48-43.37-30.92-49.3s-43.2-27.87-60.1-4.77S1562.21,2398.73,1562.21,2398.73Z"/>
  <path class="cls-1" d="M1570.58,2218.86c8.8,22,13.29,41.41,12.42,61.71a55,55,0,0,1-4.93,20.28c-4,9-11.43,12.73-20.67,12.41a104.56,104.56,0,0,1-20.11-2.34c-20.46-4.78-39.56-13.33-56.26-27.84-11-9.5-19.56-20.94-24.19-35a71.75,71.75,0,0,1-.33-43.68c1.52-5.07,3.53-9.94,5.23-15a15.76,15.76,0,0,1,5.86-7.58,52.53,52.53,0,0,1,5.86-4.09c9-5,18.19-9.77,28.71-11.19,13.14-1.78,25.1,2.24,36.29,10.11,9.61,6.77,17,15.89,23.26,26C1565.46,2208.84,1568.65,2215.31,1570.58,2218.86Z"/>
  <path class="cls-1" d="M1427.31,2156.4a32.7,32.7,0,0,1,2.71,19.51c-2.65,16.82-19.23,28.73-38.4,18.49-7-3.73-14.24-6.33-21.64-9-12.86-4.63-25.48-9.86-36.69-17.61A51.89,51.89,0,0,1,1320,2155c-7.63-10.88-5.49-20.16.5-27.7,9.88-12.44,24-16.7,39.21-13.29,10.45,2.34,19.82,7.2,28.55,12.86A352.51,352.51,0,0,1,1427.31,2156.4Z"/>
  <path class="cls-1" d="M732.1,2334.84c1.62-4.86-1.53-13.51-8.41-14.7s-20.67,21.69-21.33,23.33,9.15,14.58,13.87,11.14S728.88,2344.59,732.1,2334.84Z"/>
  <path class="cls-1" d="M744.91,2293.11c-3.26,0-9.79,0-9.13,4.12s9.13,28,21.52,18.94C762.61,2312.3,744.91,2293.11,744.91,2293.11Z"/>
  <path class="cls-1" d="M782.12,2278.47a15.13,15.13,0,0,1-2.61,8.62,8.9,8.9,0,0,1-2.55,2.34,5.65,5.65,0,0,1-4.89.46,25.79,25.79,0,0,1-3.6-1.4,22.29,22.29,0,0,1-8.37-6.66,8.2,8.2,0,0,1-1.76-5.82,8.77,8.77,0,0,1,3.44-5.63c.69-.57,1.46-1.08,2.18-1.63a3.9,3.9,0,0,1,1.71-.66c.48-.09,1-.15,1.44-.2a25.07,25.07,0,0,1,6.3.13,10.56,10.56,0,0,1,6,3.28,9.87,9.87,0,0,1,2.3,4.61A18.43,18.43,0,0,1,782.12,2278.47Z"/>
  <path class="cls-1" d="M277,1254.76c2.2-4.24-2.85-26.6-5.46-29.44s-12.85-9.71-18.46,1.3c-2,3.88,8.33,26.33,11.49,30.63S274,1260.52,277,1254.76Z"/>
  <path class="cls-1" d="M417.74,1415.84c-4-9.44-9-30.63-31.75-42.14s-38.13,16.63-35.88,24.91c2.82,10.36,27.67,35.59,36.33,40.78s39.84,24.32,46.38,6.76S417.74,1415.84,417.74,1415.84Z"/>
  <path class="cls-1" d="M423,1575.64c-3.41-6.48-5.48-12.33-6.06-18.65a18.1,18.1,0,0,1,.57-6.47,5.79,5.79,0,0,1,5.39-4.62,27.05,27.05,0,0,1,5.83,0,35.93,35.93,0,0,1,17.18,6.5,24.67,24.67,0,0,1,8.33,9.94,24.24,24.24,0,0,1,1.88,13.52c-.23,1.63-.6,3.21-.88,4.83a5,5,0,0,1-1.36,2.56,15.17,15.17,0,0,1-1.51,1.49,22.38,22.38,0,0,1-7.73,4.55c-3.67,1-7.25.25-10.76-1.77a26.16,26.16,0,0,1-7.7-7.19C424.83,1578.64,423.65,1576.7,423,1575.64Z"/>
  <path class="cls-1" d="M288.77,1317.62a31.4,31.4,0,0,1,.43-13.16c2.61-10.62,11.07-16,18.83-6.51a84,84,0,0,0,9,9,87.26,87.26,0,0,1,15,16.87,40,40,0,0,1,4.86,10.33c2.52,8.23.77,14-2.57,18.06-5.49,6.7-12.2,7.42-18.75,3-4.5-3.06-8.3-7.6-11.74-12.58A242.76,242.76,0,0,1,288.77,1317.62Z"/>
  <path class="cls-1" d="M567.22,1660.44c2.85-10.89,18.58-19.54,29.81-3,8.12-1.22,16.32-8.66,24.48-7.77,10.54,1.16,19.45,12.46,20.28,24.08.22,3,0,6,0,7.51-2.8,7.49-18.21,7.16-18.21,7.16s18.29,28.57-10,30.39a21.58,21.58,0,0,1-6.78-.75c-17.58-4.87-30.53-15.75-39.26-31.52C563,1678.29,562.08,1669.53,567.22,1660.44Z"/>
  <path class="cls-1" d="M703.61,1717.34c.89-1,1.46-2.06,2.36-2.56,1.13-.63,4.18-3.91,5.49-4.15,12.1-16.28,8.42-11.29,16-22.18,9-9.73,9.78-11.86,14.73-18.86,3-4.2,4.67-8.34,9.35-13.08,9.81-16.43,9.75-12.31,14.57-26.38-.44-1.64,1.19-1.77.44-3.52,8.38-5.25,16.43-8.93,25.75-8.27,9.92.7,15.13,6.88,17.4,15a33.94,33.94,0,0,1-.51,20.22c-1.09,3.29-3.48,5.33-5.29,8.07,1.22,2.07,3.4,2.26,5.33,2.91a36.27,36.27,0,0,1,19,14.1,31.76,31.76,0,0,1-7.38,43.7c-9.75,7.25-20.9,8.82-32.65,7.3-5.06-.65-10-1.94-15.44-3a28.8,28.8,0,0,0,.92,2.76c5.49,12.25-2.23,24-12.56,27.64-9.9,3.5-19.37,2.48-28.74-2.43-12-6.29-20.3-16-26.76-27.52C704.29,1724.76,705.14,1720.33,703.61,1717.34Z"/>
  <path class="cls-1" d="M526.8,1554.89c-10.47-11-17.08-22.26-19.54-36.53a41,41,0,0,1,.81-16.1c1.86-8,7.2-13.9,14.67-17.89a121.43,121.43,0,0,1,16.49-7.54c17.16-6,27.81-8.87,43.46-6.57,10.26,1.51,18.94,5.41,24.83,12.92,6.15,7.85,14.24,18,13,29.71-.43,4.16-1.29,8.4-1.87,12.59a18.17,18.17,0,0,1-3.53,7.85c-1.31,1.85-2.59,3.74-4.07,5.47-6.48,7.55-9.72,24.55-17.94,30.31-10.27,7.19-19.21,9.43-29.4,9.14C555,1578,543,1566,536.38,1561.88,532.45,1559.41,528.89,1556.43,526.8,1554.89Z"/>
  <path class="cls-1" d="M207.46,1052.29a15,15,0,0,1-10.63-3.62c-8-6.46-10-20.9-.07-30.91a114.71,114.71,0,0,0,9.88-12c5.51-7.35,11.26-14.35,18-19.72a27.91,27.91,0,0,1,9.8-5.31c7.42-2.09,11.64,1.94,14,8.06,3.94,10.09,2.66,20.76-2.79,30a61.69,61.69,0,0,1-13.54,15.57A206.17,206.17,0,0,1,207.46,1052.29Z"/>
  <path class="cls-1" d="M669.78,1760.65c4.78,6.71,8.57,13.45,10.46,20.72a62.1,62.1,0,0,1,1.86,18c-.3,7.74-9.11,15-18.68,16.44-2.45.37-5,.45-6.22.56-6.39-1.51-11.59-3-16.93-3.94-9-1.54-13.24-7.07-15.94-13.93-.57-1.46-.16-3.35.2-5,2.94-13.14,11.15-23.32,23.67-30.78C654.72,1758.85,661.92,1757.55,669.78,1760.65Z"/>
  <path class="cls-1" d="M307,1630.81c7.31-.9,28.08-25.66,28.63-31.18s-2.3-23.58-21.1-21.13c-6.65.86-21.93,32-23.6,39.41S297.05,1632,307,1630.81Z"/>
  <path class="cls-1" d="M448.84,1939.57c-3.2-6.39-4.8-12.34-4.42-19.07a19.43,19.43,0,0,1,1.88-7.09,10.51,10.51,0,0,1,7.7-6,44.57,44.57,0,0,1,7.45-1.06c7.56-.31,14.62.76,20.77,4a18,18,0,0,1,8.87,9.25c1.74,4.37,1.62,9.2,0,14.27-.57,1.8-1.33,3.58-2,5.37a7.65,7.65,0,0,1-2.19,3,24.53,24.53,0,0,1-2.19,1.87,43.4,43.4,0,0,1-10.67,6.28,18.6,18.6,0,0,1-13.42,0,20.45,20.45,0,0,1-8.55-6.4C450.71,1942.39,449.55,1940.56,448.84,1939.57Z"/>
  <path class="cls-1" d="M1647.12,470.39c.89-1,1.46-2.06,2.36-2.56,1.13-.63,4.18-3.91,5.49-4.15,12.1-16.28,8.42-11.29,16-22.18,9-9.73,9.78-11.86,14.73-18.86,3-4.2,4.67-8.34,9.35-13.08,9.81-16.42,9.75-12.3,14.57-26.37-.44-1.64,1.19-1.77.44-3.52,8.38-5.25,16.43-8.94,25.74-8.28,9.92.7,15.13,6.89,17.4,15a33.83,33.83,0,0,1-.51,20.21c-1.09,3.29-3.48,5.33-5.29,8.07,1.22,2.07,3.4,2.26,5.33,2.91a36.27,36.27,0,0,1,19,14.1,31.74,31.74,0,0,1-7.38,43.7c-9.75,7.25-20.9,8.82-32.64,7.3-5.06-.65-10-1.94-15.44-3a28.8,28.8,0,0,0,.92,2.76c5.49,12.25-2.23,24-12.56,27.64-9.9,3.51-19.37,2.48-28.74-2.43-12-6.29-20.3-16-26.76-27.52C1647.8,477.81,1648.65,473.38,1647.12,470.39Z"/>
  <path class="cls-1" d="M1636.44,456.74c-10.47-11-17.08-22.27-19.53-36.54a40.84,40.84,0,0,1,.81-16.1c1.85-8,7.19-13.89,14.66-17.88a122,122,0,0,1,16.49-7.54c17.17-6,27.82-8.87,43.47-6.57,10.26,1.51,18.94,5.41,24.83,12.92,6.15,7.85,14.24,18,13,29.7-.43,4.16-1.29,8.4-1.87,12.59a18.4,18.4,0,0,1-3.53,7.85c-1.31,1.85-2.59,3.74-4.07,5.47-6.48,7.56-9.72,24.56-17.94,30.32-10.27,7.19-19.21,9.43-29.4,9.14-8.76-.26-20.77-12.28-27.34-16.37C1642.09,461.26,1638.53,458.28,1636.44,456.74Z"/>
</svg>
