<svg id="Layer_1" data-name="Layer 1" xmlns="http://www.w3.org/2000/svg" width="46.67in" height="24.64in" viewBox="0 0 3360 1773.82">
  <defs>
    <style>
      .cls-1 {
        fill: #ffcc02;
      }
    </style>
  </defs>
  <g>
    <path class="cls-1" d="M1569.26,825.19c.17-3.53-.19-6,.48-8.11,2-6.17,11.33-8.1,15.65-3.33a8,8,0,0,1,1.85,8.36,7.7,7.7,0,0,1-6.58,5.42c-2.62.28-5.29.06-8.81.06-126.71,135.92-226,289.72-295.9,463,10.12,1.54,19.31-.48,28.52-1,11.59-.61,23.17-1.62,34.76-2.45,12.92-.91,25.83-1.87,38.75-2.71s25.87-1.55,38.8-2.31c16.57-1,33.14-2,49.72-2.89q12.45-.69,24.91-1.07c13-.41,25.94-.59,38.9-1,16-.56,31.89-1.3,47.83-1.93,2.66-.11,5.33,0,8,0,47.66,0,95.32-.16,143,.09,15.6.08,31.21,1.25,46.81,1.87,10,.39,19.94.55,29.9,1,16.25.83,32.49,1.86,48.74,2.8,12.6.74,25.22,1.31,37.8,2.26,15.56,1.16,31.12,2.36,46.63,4,35,3.79,70,7.55,104.87,12,60.4,7.61,120.27,18.41,179.83,30.89q81.16,17,160.65,40.62c24.56,7.27,48.79,15.68,73.17,23.58,5.38,1.74,10.75,3.53,16.89,5.55,1.28-2.33,2.68-4.48,3.68-6.79,6.49-15,19.71-19.95,34.19-22.54,3.32-.59,7.35.65,10.56,2.12a75.29,75.29,0,0,1,12.69,7.79c7.8,5.68,10.68,13.94,8.78,22.92-3.75,17.7-14.17,30.83-30.9,37.91-11.71,5-25.85,2.25-33.14-6.4a28,28,0,0,1-7-17.18c-.2-4.32,0-8.66,0-13.57a32.38,32.38,0,0,0-4-2c-37.36-13.22-75.09-25.27-113.37-35.55-27.64-7.41-55.2-15.23-83-21.81-30.74-7.27-61.72-13.59-92.69-19.85-61.27-12.39-123.12-21.21-185.21-28.23-28.69-3.24-57.43-6-86.17-8.81-11.23-1.08-22.53-1.47-33.79-2.24-13.25-.91-26.49-2-39.74-2.82-7.29-.49-14.59-.82-21.89-1.12-10.3-.41-20.61-.67-30.91-1.08-15.28-.61-30.55-1.3-45.82-1.93-2.66-.1-5.33-.06-8-.06-38.33,0-76.66-.12-115,0-23.3.1-46.61.49-69.91,1-17.61.41-35.21,1.21-52.81,2-20.58.9-41.16,1.76-61.71,3-23.2,1.41-46.36,3.3-69.55,4.87-16.56,1.12-33.14,2-49.71,3.08q-15.4,1-30.8,2.15a42.19,42.19,0,0,0-6.14,1.45c-2.4,5.45-4.74,11-7.21,16.38-11.73,25.74-23,51.71-35.37,77.13-11.73,24-26.69,46-46.27,64.59-10.71,10.16-22.34,18.92-35.92,24.87-1.29.56-2.8.6-4.87-.57a27.28,27.28,0,0,1,4.41-3.17c25.71-11.75,44.16-31.38,59.94-54.21,11.8-17.08,21.16-35.46,29.94-54.13,9.49-20.17,18.2-40.69,27.18-61.1,1.18-2.68,1.92-5.56,2.89-8.39-7.68-1.63-91.38,4.39-108.45,7.73-8,12.62-16.15,25.56-24.4,38.42-12,18.76-24,37.64-38.42,54.67-6.43,7.58-13.68,14.5-20.86,21.4-3,2.92-6.76,5.29-12,4.16.82-1.14,1.19-2.28,1.92-2.57,10.56-4.33,18-12.32,25-20.89,17.51-21.44,32.63-44.55,47.4-67.9,4.27-6.75,8.52-13.52,12.69-20.33a59.4,59.4,0,0,0,2.78-6.09c-10.29-1.6-19.73.62-29.19,1.11-9.94.52-19.86,1.48-29.79,2.21-9.6.7-19.2,1.44-28.81,2s-19.21.93-28.88,1.38c-10.81,14.19-21.37,28.25-32.15,42.15-10.47,13.48-21.34,26.62-34.52,37.66,3.39-7.67,9.94-12.8,14.82-19.24,5-6.61,10.78-12.65,16-19.09,5-6.19,10-12.45,14.69-18.92,4.79-6.63,10.34-12.82,13.74-20.82-5.51-1.78-10.52-1-15.44-1-8.3.09-16.59.64-24.9.88-4.66.13-9.33,0-14,0a415.69,415.69,0,0,1-78.44-6c-26.23-4.58-52.45-9.14-77.79-17.55-12.93-4.28-25.87-8.63-38.53-13.64a387,387,0,0,1-84.59-46.69A391.62,391.62,0,0,1,655.19,1197a412.42,412.42,0,0,1-48.78-55.35,425.62,425.62,0,0,1-39-65A507.48,507.48,0,0,1,530.28,972.5a594.21,594.21,0,0,1-13.78-85.56,524.4,524.4,0,0,1-2.24-63.8,685.75,685.75,0,0,1,18.58-140.09,542.81,542.81,0,0,1,50.8-132c19.67-36.18,44-69,74-97.39,4.83-4.56,9.8-9,14.69-13.42-1.17-1.93-2.83-3.66-3.24-5.64-.35-1.76.45-3.91,1.21-5.69a17.08,17.08,0,0,1,3.23-5c9.17-9.67,18.36-19.37,30.29-25.77a46,46,0,0,1,11-4.45c7.21-1.71,11.73,2,11.83,9.32.16,10.9-6,18.21-14.79,23.11-5.44,3-11.64,4.85-17.66,6.67a54.29,54.29,0,0,0-19.3,9.91c-24.41,20-44.86,43.52-63,69.22a457.27,457.27,0,0,0-41,71.93,562.83,562.83,0,0,0-29.88,81.42c-9.9,34.63-15.84,70-20.14,105.7-1.54,12.84-1.64,25.86-2.24,38.8-.47,10-1,19.94-1,29.9A598.39,598.39,0,0,0,531.48,962.3a499.32,499.32,0,0,0,33.42,101.23,437.79,437.79,0,0,0,44.73,76.61,386.15,386.15,0,0,0,122.29,110C763,1268,796,1281,830.27,1291.09c29.46,8.66,59.72,13.24,90,17.66,12.77,1.87,25.83,2,38.78,2.38,12,.38,24,.25,36,0,12.63-.23,25.25-.81,38.74-1.27,2.84-3.91,6.16-8,9-12.46,25.27-39.94,50.58-79.84,75.6-119.92,25.39-40.67,51.13-81.09,80.39-119.15,17.23-22.42,35.18-44.23,54.83-64.6,7.15-7.43,14.11-15,21.3-22.44,18.12-18.63,37.87-35.45,58-51.87a59.81,59.81,0,0,1,6.63-4.25c.13-.08.53.28,1.4.78a30.79,30.79,0,0,1-3.63,4.13,718.38,718.38,0,0,0-74.5,67.8c-18.36,19.27-35.48,39.62-52,60.46-30.7,38.64-57.45,80-83.73,121.67-27.51,43.64-53.47,88.25-82.56,130.88-1.45,2.11-2.66,4.38-3.78,6.25.57,1,.67,1.27.89,1.43a1.69,1.69,0,0,0,.93.35,49.78,49.78,0,0,0,6,.21q51.67-3.6,103.34-7.34a50,50,0,0,0,6.43-1.38c8.51-13.88,17.11-28.08,25.88-42.18,22.66-36.45,44.56-73.42,70.66-107.6,6.64-8.69,13.85-17,20.92-25.32.65-.76,2.19-.77,4.48-1.49-.76,2.28-.78,3.91-1.56,4.46-7.77,5.47-12.68,13.5-18.4,20.73-15.29,19.35-28.89,39.89-41.81,60.89-15.88,25.79-32,51.43-47.9,77.2-2.21,3.59-5.08,6.95-5.89,11.26,2.71,2.68,5.87,1.91,8.65,1.71,13.24-.94,26.45-2.19,39.68-3.25,15.55-1.26,31.11-2.41,46.66-3.67,3.61-.3,7.2-.87,11.55-1.41,35.86-85.72,77-168.81,127.45-247.1S1506.26,893.59,1569.26,825.19Z"/>
    <path class="cls-1" d="M2602.6,1374.89c-13.55-13.14-30.55-20.81-47.72-27.85a384.1,384.1,0,0,0-70.37-21.33c-12.07-2.41-46.82-.66-59,1.42,0,0-17.64-15.28-25.64-32.94a53.58,53.58,0,0,1-5.2-23.13c.15-9.63-.42-19.24,2.43-28.69,4.61-15.29,13.45-27.26,27-35.73,8.6-5.38,18.17-6.34,27.89-5.21a59.86,59.86,0,0,1,16.36,4c12.31,5.2,23.74,12.07,33.29,21.58,8.48,8.43,16.66,17.17,25,25.74a13,13,0,0,0,2.52,1.37c2.78-1.31,6.12-2.7,9.3-4.39a119.35,119.35,0,0,1,50.34-14.31c30.26-1.57,54.37,16.57,60.23,45.41,3.61,17.76.08,34.09-7.22,50.17-8.07,17.78-21,31.34-36.34,42.85a9,9,0,0,1-1.72,1A3.53,3.53,0,0,1,2602.6,1374.89Z"/>
    <path class="cls-1" d="M2414.05,1437.09c2.27.48,4.39.46,5.92,1.39a21.56,21.56,0,0,1,5.05,4.78c15.45,18.32,34.41,32.12,55.55,43.09,13.44,7,27.91,10.61,42.84,12.16,9,.92,17.85-.84,26.56-2.92,21.6-5.17,39.79-16.43,55.52-31.84,2.13-2.09,3.72-4.72,5.75-7.35,15.21,8.21,27.72,17.27,34.72,31.93,7.45,15.62,2.49,28.78-8,39.15a59.53,59.53,0,0,1-31.27,16.45c-5.95,1.15-11.11-.74-16.85-1.14-2.11,3.61-.53,7.07.13,10.55,2.69,14.15,1.22,27.9-5.22,40.75-13.76,27.44-45.7,38.14-73,26.05-19.43-8.59-31.4-24.12-39.17-43.2-3.35-8.22-5.66-16.87-8.64-25.94a50.18,50.18,0,0,0-3.43,3.73c-14,18.75-38.5,17.07-52.95,4.53-13.83-12-20.41-27.22-21-45.58-.72-23.55,7-44.37,19-64C2408.05,1445.73,2410.79,1442,2414.05,1437.09Z"/>
    <path class="cls-1" d="M869,238.8c-.63,27.23-5,49.82-15.95,70.9a63.32,63.32,0,0,1-15.63,19.24c-9,7.67-19.43,8.34-29.94,3.85a135.21,135.21,0,0,1-22.06-11.53c-21.27-14.26-39.12-31.92-51.29-54.77-8-15-12.31-31-10.74-47.92,1.63-17.72,9.11-33.19,21-46.38,4.24-4.68,8.95-8.94,13.37-13.47a20.22,20.22,0,0,1,10.48-5.38,67.69,67.69,0,0,1,8.78-1.7c12.91-1.25,25.78-2.15,38.62,1.07,16,4,27.87,13.66,36.92,27,7.77,11.48,11.86,24.47,14.07,38C868,225.9,868.53,234.19,869,238.8Z"/>
    <path class="cls-1" d="M1328.14,308c-.82-2.64-3.63-3.17-4.5-6-1.22-.27-3.27-6.93-4.54-7.07-18.3-2-33.07-2.08-49.67-10.18-12.85-6.27-23.38-15-30.14-27.93a43,43,0,0,1-4.62-17.16c-1.47-20.13,5.83-37.26,18.36-52.28A103.88,103.88,0,0,1,1274.46,168a54.3,54.3,0,0,1,36.94-9.23c10.43,1,17.41,7.81,22.89,16,5,7.58,7,16.46,8.79,25.25.94,4.51,1.49,9.1,2.29,14.17,5.67-1.54,11-3.15,16.38-4.42,10-2.36,20-4.76,30.4-4.64,7,.07,13,2,18,7.7.75,2.59,1.58,5.44,2.66,9.18-1.56,5-2.87,10.83-5.23,16.24-5.8,13.26-14.8,24.43-24.44,35-5.59,6.16-11.67,11.88-17.62,17.7A88.85,88.85,0,0,1,1342.68,307C1338.32,309.13,1333.93,310.05,1328.14,308Z"/>
    <path class="cls-1" d="M1076.56,331c-15.66,1.43-27.37-5.14-38.45-12.55-15.78-10.56-27.21-25.31-36.86-41.44a110.42,110.42,0,0,1-15.7-49.92,52.09,52.09,0,0,1,6.65-28.77c5-8.93,12.84-15,22.21-19.23,8.57-3.83,16.83-4.61,25.81-.46a103.65,103.65,0,0,1,27.27,18c24.64,22.66,37.22,51.42,43.08,83.55,1.77,9.67,3.73,19.62.68,29.54-.88,2.86-1.27,5.93-2.58,8.56-1.12,2.26-2.84,5.08-5,5.87C1094.48,327.55,1085.84,333.77,1076.56,331Z"/>
    <path class="cls-1" d="M2268.53,354.78c-12.68,4.08-46.12,26-71.2,46.38-22.22,18-43.6,36.9-62,59-18,21.71-34.9,44.23-49.56,68.43l-1.81-.84c.09-1-.17-2.28.31-3.06,13.23-21.59,27.47-42.46,44.44-61.33,9.76-10.87,19.23-22.07,29.66-32.27a498.2,498.2,0,0,1,81-64.46,515.74,515.74,0,0,1,125.59-58,547.06,547.06,0,0,1,106.36-21.63,507.9,507.9,0,0,1,67.74-2.76,558.2,558.2,0,0,1,74.27,7.51,469.72,469.72,0,0,1,95.05,26.3,434.36,434.36,0,0,1,91.25,49,415.73,415.73,0,0,1,61.66,53.63,404.12,404.12,0,0,1,60.42,82.7A429,429,0,0,1,2957.27,588a502.56,502.56,0,0,1,19.59,101.66c2,23.55,3.5,47.12,2.74,70.72-.66,20.57-2.08,41.13-4,61.63-4,42.81-12.2,84.92-22.86,126.52-6.2,24.15-13.63,48-20.51,72-.35,1.23-.76,2.44-1.1,3.53,16.54,12.56,20.94,24.09,14,37.18-6,11.44-17,15.66-29.64,12.86-12.19-2.7-19.62-14.86-18.25-28.4,1.32-13,11.06-20.53,28.64-22,10.08-15.35,41-141.15,40.92-165.91-.29-.17-.57-.36-.86-.51a4.42,4.42,0,0,0-.89-.4,4.71,4.71,0,0,0-1-.1l-1-.07H2274.24c-.33,0-.67,0-1,0s-.66,0-1-.1a4.06,4.06,0,0,1-1-.2,2,2,0,0,1-.55-.34,6.5,6.5,0,0,1-.94-.89,2.59,2.59,0,0,1-.28-.93c-.09-.65-.17-1.32-.2-2s0-1.33,0-2q0-246,0-491.9a7.59,7.59,0,0,0-.23-2C2268.93,356,2268.81,355.69,2268.53,354.78Zm2.48-2.56V839.94c0,2.67-.1,5.34,0,8,.09,1.91.5,3.81.78,5.82,4.61,1.91,9,1.14,13.21,1.14q335,0,669.95,0c2.34,0,4.68.1,7,0,1.91-.11,3.8-.51,5.53-.76a16.55,16.55,0,0,0,1.3-3.26c2-15.78,4.51-31.52,5.72-47.36,1.24-16.23,1.45-32.57,1.62-48.86.12-11.63-.36-23.27-.94-34.89-.64-12.6-1.35-25.22-2.64-37.76a516.57,516.57,0,0,0-15.4-81.26,456.44,456.44,0,0,0-33.9-87.28,358,358,0,0,0-33.87-54.1c-8-10.61-15.72-21.61-24.92-31.12-15.49-16-31.38-31.65-49.17-45.27-18.82-14.4-38.35-27.72-59.18-38.88a460.9,460.9,0,0,0-112.61-42.76,508.69,508.69,0,0,0-171.33-10.87c-51.08,5-100.21,17.37-147.77,36.35A445.66,445.66,0,0,0,2271,352.22Z"/>
    <path class="cls-1" d="M548.42,380.41a44.1,44.1,0,0,1-4.27,25.2c-9.57,19.72-33.7,27.8-52.42,7.46-6.83-7.42-14.38-13.54-22.1-19.79-13.42-10.87-26.3-22.41-36.58-36.47a68.67,68.67,0,0,1-10.71-21.18c-4.85-16.5,1.24-27.11,11.2-34,16.42-11.41,34.74-11,51.39-.7,11.44,7.09,20.64,16.84,28.78,27.35A457.8,457.8,0,0,1,548.42,380.41Z"/>
    <path class="cls-1" d="M3008.52,856c2.59-22.2,5.23-44.28,7.73-66.38a528.88,528.88,0,0,0,3-69.73c-.67-35.62-3.85-71-10.73-106A465,465,0,0,0,2982.79,528c-15.79-38.73-36.66-74.65-63.57-106.84-7.46-8.92-14.89-17.93-23-26.2a442.72,442.72,0,0,0-48.95-42.47,452.32,452.32,0,0,0-67.05-41.33,445.64,445.64,0,0,0-55.08-23.38,554.14,554.14,0,0,0-112.5-26.52c-13.82-1.77-27.76-2.88-41.68-3.43-19.61-.79-39.3-1.66-58.89-.88a619.61,619.61,0,0,0-69.38,6.63,627.92,627.92,0,0,0-144.77,40.4,547,547,0,0,0-122.11,69.35c-24.4,18.48-47.81,38.25-68,61.49-15.25,17.58-30,35.53-43.13,55.49,3.6,8.17,4,10.9.85,20.1-11.23,11.59-29.61,19.39-44.08,16.6-14-2.33-17.62-19-8.93-29.94,10.6-6.64,30.55-10.42,48.75-8.45,1.65-2.14,3.13-3.92,4.45-5.81,17.94-25.73,37.79-49.87,60.48-71.55a534.54,534.54,0,0,1,110.49-81.6,599.87,599.87,0,0,1,89.92-40.68,556.27,556.27,0,0,1,87.61-23.69c17.32-3.13,34.73-5.91,52.18-8.19,11.83-1.55,23.79-2.29,35.72-2.79,16-.66,31.93-1,47.9-1,35.35.11,70.25,4.61,104.86,11.52a532.32,532.32,0,0,1,70.25,19.27,477.59,477.59,0,0,1,72.74,32.7A426.19,426.19,0,0,1,2857,355.68c9.39,7.39,18.27,15.49,27,23.7,9.43,8.88,18.86,17.84,27.42,27.54,9.66,10.95,18.79,22.44,27.39,34.26,25.66,35.28,44.7,74,58.23,115.42a536.23,536.23,0,0,1,22.44,104.19c1.43,12.18,1.73,24.5,2.3,36.78.52,11,.79,21.93,1,32.9.54,28-2.18,55.76-5.39,83.49-1.34,11.55-3,23.07-4.72,34.56-.75,5-1.6,9.72.58,14.63a6.21,6.21,0,0,1-2.23,8c-3.2,2.3-7.6,2-10-.79a7.42,7.42,0,0,1,.42-10C3003,858.8,3005.28,857.92,3008.52,856Z"/>
    <path class="cls-1" d="M333.16,715.82c-5.05-9.71-8.9-19.36-10.43-29.51a97.39,97.39,0,0,1-.38-24.78c1.15-10.53,12.46-19.44,24.07-20.28,3-.21,6,0,7.52,0,7.49,2.8,13.56,5.47,19.86,7.35,10.6,3.15,15.15,11.2,17.68,20.89.54,2.07-.14,4.6-.74,6.78-4.87,17.59-15.75,30.54-31.52,39.26C351,720,342.26,721,333.16,715.82Z"/>
    <path class="cls-1" d="M425.35,1557.77c-2.22,1.6-4,3.24-6,4.24a7,7,0,0,1-8.86-2.33,7.57,7.57,0,0,1,.17-8.45,6.56,6.56,0,0,1,8.8-2.21c2,1,3.48,2.92,5.92,5,8.46.35,17.72.92,27,1.11,22.29.43,44.58,1.07,66.86.9q32.37-.22,64.69-2.66c25.51-1.88,50.92-4.4,76.19-8.27,33.57-5.13,66.76-12.21,99.08-22.67,34.25-11.08,67.53-24.71,98.84-42.59a464.67,464.67,0,0,0,66.23-46.13c6.64-5.52,12.89-11.51,19.38-17.22a69.31,69.31,0,0,1,5.82-4c-1.49,5.1-4.37,6.93-6.63,9.07a456.19,456.19,0,0,1-46.36,37.75,395.25,395.25,0,0,1-56.38,33.87c-29.85,14.8-60.6,27.42-92.77,36.44A744.42,744.42,0,0,1,635,1552.2c-20.75,2.48-41.63,3.84-62.47,5.47-32.87,2.58-65.82,2.17-98.76,1.94-12.93-.1-25.86-1.23-38.79-1.82C432,1557.65,429,1557.77,425.35,1557.77Z"/>
    <path class="cls-1" d="M2202.57,380a19,19,0,0,0,3.25,6.75,47.85,47.85,0,0,0,6.3,7.52,31.4,31.4,0,0,0,6.74,3.92,16.31,16.31,0,0,1,.37,5.84,8.25,8.25,0,0,1-1.17,3.21,16.21,16.21,0,0,1-2.46,3.36,8.81,8.81,0,0,1-5.75,2.53,5.1,5.1,0,0,1-3.53-1.29,7.27,7.27,0,0,1-1.54-1.64,13.51,13.51,0,0,1-2.1-5c-.31-1.62-.57-3.27-.85-4.9a1.92,1.92,0,0,0-.18-.35c-.42,0-.9-.09-1.38-.1a14.69,14.69,0,0,1-6.75-1.74c-3.53-1.91-4.86-5.82-3.32-9.78a12.48,12.48,0,0,1,4.63-5.68,15.78,15.78,0,0,1,7.35-2.75h.26A.66.66,0,0,1,2202.57,380Z"/>
  </g>
  <path class="cls-1" d="M985,1376c-3.32,4.66-6.93,9-10.66,13.32s-7.55,8.45-11.5,12.52-8,8-12.22,11.84c-2.08,1.92-4.24,3.77-6.42,5.61a72,72,0,0,1-6.86,5.13c3.68-4.36,7.27-8.74,11.07-12.94S956,1403.06,960,1399s8-8,12.14-11.89S980.49,1379.46,985,1376Z"/>
  <path class="cls-1" d="M1549.89,830.17c-3.86,0-11.56,0-10.79,3.86s17.72,18.48,25.42,17.71S1549.89,830.17,1549.89,830.17Z"/>
  <path class="cls-1" d="M2994.69,632.54c-9.53,12.54-2.27,85.58,5.43,95.69s39.88,36.24,64.19,3.76c8.6-11.5-16.75-87-25.68-102S3007.61,615.51,2994.69,632.54Z"/>
  <path class="cls-1" d="M3009.46,784.27c-7.52,1.85-16.48,13.66-13,24.37s43.38,10.76,46,10.3,12.29-25.32,4.37-29.05S3024.45,780.58,3009.46,784.27Z"/>
  <path class="cls-1" d="M2964.17,539.14c1.18,11.78-1.64,38.56,24.06,51.44s59.5-24.57,60.2-35c.87-13.06-21.48-43.37-30.92-49.3s-43.2-27.87-60.1-4.77S2964.17,539.14,2964.17,539.14Z"/>
  <path class="cls-1" d="M2972.54,359.28c8.8,22,13.29,41.41,12.42,61.71a54.86,54.86,0,0,1-4.93,20.27c-4,8.95-11.43,12.73-20.67,12.41a104.41,104.41,0,0,1-20.11-2.34C2918.8,446.55,2899.7,438,2883,423.5c-11-9.5-19.56-20.94-24.19-35a71.77,71.77,0,0,1-.33-43.68c1.52-5.07,3.53-9.94,5.23-14.95a15.76,15.76,0,0,1,5.86-7.58,53.06,53.06,0,0,1,5.86-4.09c9-5,18.19-9.77,28.71-11.19,13.14-1.78,25.1,2.24,36.28,10.11,9.61,6.77,17,15.89,23.26,26C2967.42,349.26,2970.61,355.73,2972.54,359.28Z"/>
  <path class="cls-1" d="M2829.28,296.82a32.69,32.69,0,0,1,2.71,19.51c-2.65,16.82-19.23,28.73-38.4,18.49-7-3.73-14.23-6.33-21.63-9-12.86-4.63-25.48-9.86-36.69-17.61A51.65,51.65,0,0,1,2722,295.38c-7.63-10.87-5.49-20.15.5-27.69,9.88-12.44,24-16.7,39.21-13.29,10.45,2.34,19.82,7.2,28.55,12.86A352.48,352.48,0,0,1,2829.28,296.82Z"/>
  <path class="cls-1" d="M2134.12,475.25c1.62-4.86-1.53-13.51-8.41-14.7s-20.67,21.69-21.33,23.33,9.15,14.58,13.87,11.14S2130.9,485,2134.12,475.25Z"/>
  <path class="cls-1" d="M2146.93,433.52c-3.26,0-9.79,0-9.13,4.12s9.13,28,21.52,18.94C2164.63,452.71,2146.93,433.52,2146.93,433.52Z"/>
  <path class="cls-1" d="M2184.14,418.89a15.12,15.12,0,0,1-2.61,8.61,8.86,8.86,0,0,1-2.55,2.34,5.65,5.65,0,0,1-4.89.46,24.66,24.66,0,0,1-3.6-1.4,22.16,22.16,0,0,1-8.37-6.65,8.17,8.17,0,0,1-1.76-5.82,8.76,8.76,0,0,1,3.44-5.63c.69-.57,1.46-1.08,2.18-1.63a3.79,3.79,0,0,1,1.71-.66,13.85,13.85,0,0,1,1.44-.2,24.62,24.62,0,0,1,6.3.13,10.48,10.48,0,0,1,6,3.28,9.81,9.81,0,0,1,2.3,4.61C2184,417.32,2184.06,418.33,2184.14,418.89Z"/>
  <path class="cls-1" d="M821.14,1497.29c-4.24-2.2-26.6,2.85-29.44,5.46S782,1515.6,793,1521.21c3.88,2,26.33-8.33,30.63-11.49S826.9,1500.28,821.14,1497.29Z"/>
  <path class="cls-1" d="M982.21,1356.53c-9.44,4-30.63,9-42.14,31.75s16.63,38.12,24.91,35.87c10.36-2.82,35.59-27.66,40.78-36.32s24.32-39.84,6.76-46.38S982.21,1356.53,982.21,1356.53Z"/>
  <path class="cls-1" d="M1142,1351.31c-6.48,3.41-12.33,5.48-18.65,6.06a18.29,18.29,0,0,1-6.47-.57,5.79,5.79,0,0,1-4.62-5.39,27.7,27.7,0,0,1,0-5.83,35.88,35.88,0,0,1,6.5-17.18,24.78,24.78,0,0,1,9.94-8.33,24.24,24.24,0,0,1,13.52-1.88c1.63.23,3.21.6,4.83.88a5,5,0,0,1,2.56,1.36,15.14,15.14,0,0,1,1.49,1.51,22.52,22.52,0,0,1,4.55,7.73c1,3.67.25,7.25-1.77,10.76a26.28,26.28,0,0,1-7.19,7.7C1145,1349.44,1143.06,1350.62,1142,1351.31Z"/>
  <path class="cls-1" d="M884,1485.49a31.34,31.34,0,0,1-13.16-.43c-10.62-2.61-16-11.07-6.51-18.83a83.38,83.38,0,0,0,9-9,87.47,87.47,0,0,1,16.87-15,40,40,0,0,1,10.33-4.86c8.23-2.52,14-.77,18.06,2.57,6.7,5.49,7.42,12.2,3,18.75-3.06,4.5-7.6,8.3-12.58,11.74A243.61,243.61,0,0,1,884,1485.49Z"/>
  <path class="cls-1" d="M1226.79,1207.06c-10.89-2.85-19.53-18.58-3-29.81-1.22-8.12-8.66-16.32-7.77-24.48,1.16-10.54,12.46-19.45,24.08-20.28,3-.22,6,0,7.51,0,7.49,2.8,7.16,18.21,7.16,18.21s28.57-18.29,30.39,10a21.44,21.44,0,0,1-.75,6.78c-4.87,17.58-15.75,30.53-31.52,39.26C1244.64,1211.27,1235.88,1212.2,1226.79,1207.06Z"/>
  <path class="cls-1" d="M1283.69,1070.68c-1-.89-2.06-1.46-2.56-2.36-.63-1.13-3.91-4.18-4.15-5.49-16.28-12.1-11.29-8.42-22.18-16-9.73-9-11.86-9.78-18.86-14.73-4.2-3-8.34-4.67-13.08-9.35-16.42-9.81-12.3-9.75-26.37-14.57-1.64.44-1.77-1.19-3.52-.44-5.25-8.38-8.93-16.43-8.27-25.74.7-9.92,6.88-15.13,15-17.4a33.87,33.87,0,0,1,20.21.51c3.29,1.09,5.33,3.48,8.07,5.29,2.07-1.22,2.26-3.4,2.91-5.33a36.27,36.27,0,0,1,14.1-19,31.75,31.75,0,0,1,43.7,7.38c7.25,9.75,8.82,20.9,7.3,32.64-.65,5.06-1.94,10-3,15.44a27.82,27.82,0,0,0,2.76-.92c12.25-5.49,24,2.23,27.64,12.56,3.5,9.9,2.48,19.37-2.43,28.74-6.29,12-16,20.3-27.52,26.76C1291.11,1070,1286.68,1069.15,1283.69,1070.68Z"/>
  <path class="cls-1" d="M1121.25,1247.48c-11,10.47-22.26,17.08-36.53,19.53a40.82,40.82,0,0,1-16.1-.81c-7.95-1.85-13.89-7.19-17.88-14.66a120.73,120.73,0,0,1-7.54-16.49c-6-17.16-8.87-27.81-6.57-43.46,1.51-10.26,5.41-18.94,12.92-24.83,7.85-6.15,18-14.24,29.7-13,4.16.43,8.4,1.29,12.59,1.87a18.33,18.33,0,0,1,7.85,3.53c1.85,1.31,3.74,2.59,5.47,4.07,7.55,6.48,24.55,9.72,30.31,17.94,7.19,10.27,9.43,19.21,9.14,29.4-.26,8.76-12.28,20.76-16.37,27.33C1125.77,1241.83,1122.79,1245.39,1121.25,1247.48Z"/>
  <path class="cls-1" d="M618.69,1566.79a15,15,0,0,1-3.62,10.63c-6.46,7.95-20.9,10-30.91.07a114.76,114.76,0,0,0-12-9.88c-7.35-5.51-14.35-11.26-19.72-18a28,28,0,0,1-5.31-9.79c-2.09-7.42,1.94-11.64,8.06-14,10.09-3.94,20.76-2.66,30,2.79a61.48,61.48,0,0,1,15.57,13.54A207.27,207.27,0,0,1,618.69,1566.79Z"/>
  <path class="cls-1" d="M1327,1104.51c6.71-4.78,13.45-8.57,20.72-10.46a61.86,61.86,0,0,1,18-1.86c7.74.3,15,9.11,16.44,18.68.37,2.45.45,5,.56,6.22-1.51,6.38-3,11.58-3.94,16.92-1.54,9-7.07,13.24-13.93,15.94-1.46.57-3.35.16-5-.2-13.13-2.94-23.31-11.15-30.77-23.67C1325.2,1119.57,1323.9,1112.37,1327,1104.51Z"/>
  <path class="cls-1" d="M1197.17,1467.29c-.9-7.31-25.66-28.08-31.18-28.63s-23.58,2.3-21.13,21.1c.86,6.65,32,21.93,39.41,23.6S1198.4,1477.21,1197.17,1467.29Z"/>
  <path class="cls-1" d="M2258.85,1357.21c-6.39,3.2-12.34,4.8-19.07,4.42a19.52,19.52,0,0,1-7.09-1.88,10.51,10.51,0,0,1-6-7.7,45,45,0,0,1-1.06-7.45c-.31-7.56.76-14.62,4-20.77a18,18,0,0,1,9.25-8.87c4.37-1.74,9.2-1.62,14.27,0,1.8.57,3.58,1.33,5.37,2a7.68,7.68,0,0,1,3,2.19,26,26,0,0,1,1.87,2.19,43.38,43.38,0,0,1,6.28,10.67,18.57,18.57,0,0,1,0,13.42,20.45,20.45,0,0,1-6.4,8.55C2261.67,1355.34,2259.84,1356.5,2258.85,1357.21Z"/>
</svg>
