<?xml version="1.0" encoding="utf-8"?>
<!-- Generator: Adobe Illustrator 24.1.2, SVG Export Plug-In . SVG Version: 6.00 Build 0)  -->
<svg version="1.1" id="Layer_1" xmlns="http://www.w3.org/2000/svg" xmlns:xlink="http://www.w3.org/1999/xlink" x="0px" y="0px"
	 viewBox="0 0 1019.7 754.1" style="enable-background:new 0 0 1019.7 754.1;" xml:space="preserve">
<style type="text/css">
	.st0{opacity:0.76;fill:url(#SVGID_1_);}
	.st1{opacity:0.76;fill:url(#SVGID_2_);}
	.st2{opacity:0.76;fill:url(#SVGID_3_);}
	.st3{opacity:0.76;fill:url(#SVGID_4_);}
	.st4{opacity:0.76;fill:url(#SVGID_5_);}
	.st5{opacity:0.76;fill:url(#SVGID_6_);}
	.st6{opacity:0.76;fill:url(#SVGID_7_);}
	.st7{opacity:0.76;fill:url(#SVGID_8_);}
	.st8{opacity:0.76;fill:url(#SVGID_9_);}
	.st9{opacity:0.76;fill:url(#SVGID_10_);}
	.st10{opacity:0.76;fill:url(#SVGID_11_);}
</style>
<radialGradient id="SVGID_1_" cx="1006.0966" cy="10.8003" r="12.2499" gradientUnits="userSpaceOnUse">
	<stop  offset="0" style="stop-color:#FFDC00;stop-opacity:0"/>
	<stop  offset="0.2744" style="stop-color:#FDDC02;stop-opacity:0.2744"/>
	<stop  offset="0.4121" style="stop-color:#F5DD07;stop-opacity:0.4121"/>
	<stop  offset="0.5193" style="stop-color:#E8DD10;stop-opacity:0.5193"/>
	<stop  offset="0.6109" style="stop-color:#D5DE1C;stop-opacity:0.6109"/>
	<stop  offset="0.6924" style="stop-color:#BDDF2D;stop-opacity:0.6924"/>
	<stop  offset="0.7668" style="stop-color:#9FE141;stop-opacity:0.7668"/>
	<stop  offset="0.8358" style="stop-color:#7BE359;stop-opacity:0.8358"/>
	<stop  offset="0.9006" style="stop-color:#51E575;stop-opacity:0.9006"/>
	<stop  offset="0.9598" style="stop-color:#24E793;stop-opacity:0.9598"/>
	<stop  offset="1" style="stop-color:#00E9AB"/>
</radialGradient>
<path class="st0" d="M1003.4,0c-3.9,0-11.6,0-10.8,3.9s17.7,18.5,25.4,17.7C1025.7,20.8,1003.4,0,1003.4,0z"/>
<radialGradient id="SVGID_2_" cx="260.084" cy="678.9756" r="16.4161" gradientUnits="userSpaceOnUse">
	<stop  offset="0" style="stop-color:#FFDC00;stop-opacity:0"/>
	<stop  offset="0.2744" style="stop-color:#FDDC02;stop-opacity:0.2744"/>
	<stop  offset="0.4121" style="stop-color:#F5DD07;stop-opacity:0.4121"/>
	<stop  offset="0.5193" style="stop-color:#E8DD10;stop-opacity:0.5193"/>
	<stop  offset="0.6109" style="stop-color:#D5DE1C;stop-opacity:0.6109"/>
	<stop  offset="0.6924" style="stop-color:#BDDF2D;stop-opacity:0.6924"/>
	<stop  offset="0.7668" style="stop-color:#9FE141;stop-opacity:0.7668"/>
	<stop  offset="0.8358" style="stop-color:#7BE359;stop-opacity:0.8358"/>
	<stop  offset="0.9006" style="stop-color:#51E575;stop-opacity:0.9006"/>
	<stop  offset="0.9598" style="stop-color:#24E793;stop-opacity:0.9598"/>
	<stop  offset="1" style="stop-color:#00E9AB"/>
</radialGradient>
<path class="st1" d="M274.6,667.2c-4.2-2.2-26.6,2.9-29.4,5.5c-2.8,2.6-9.7,12.9,1.3,18.5c3.9,2,26.3-8.3,30.6-11.5
	C281.4,676.4,280.4,670.1,274.6,667.2z"/>
<radialGradient id="SVGID_3_" cx="432.0374" cy="552.1544" r="41.6526" gradientUnits="userSpaceOnUse">
	<stop  offset="0" style="stop-color:#FFDC00;stop-opacity:0"/>
	<stop  offset="0.2744" style="stop-color:#FDDC02;stop-opacity:0.2744"/>
	<stop  offset="0.4121" style="stop-color:#F5DD07;stop-opacity:0.4121"/>
	<stop  offset="0.5193" style="stop-color:#E8DD10;stop-opacity:0.5193"/>
	<stop  offset="0.6109" style="stop-color:#D5DE1C;stop-opacity:0.6109"/>
	<stop  offset="0.6924" style="stop-color:#BDDF2D;stop-opacity:0.6924"/>
	<stop  offset="0.7668" style="stop-color:#9FE141;stop-opacity:0.7668"/>
	<stop  offset="0.8358" style="stop-color:#7BE359;stop-opacity:0.8358"/>
	<stop  offset="0.9006" style="stop-color:#51E575;stop-opacity:0.9006"/>
	<stop  offset="0.9598" style="stop-color:#24E793;stop-opacity:0.9598"/>
	<stop  offset="1" style="stop-color:#00E9AB"/>
</radialGradient>
<path class="st2" d="M435.7,526.4c-9.4,4-30.6,9-42.1,31.8c-11.5,22.8,16.6,38.1,24.9,35.9c10.4-2.8,35.6-27.7,40.8-36.3
	s24.3-39.8,6.8-46.4C448.4,504.8,435.7,526.4,435.7,526.4z"/>
<radialGradient id="SVGID_4_" cx="587.5803" cy="507.5454" r="20.9065" gradientUnits="userSpaceOnUse">
	<stop  offset="0" style="stop-color:#FFDC00;stop-opacity:0"/>
	<stop  offset="0.2744" style="stop-color:#FDDC02;stop-opacity:0.2744"/>
	<stop  offset="0.4121" style="stop-color:#F5DD07;stop-opacity:0.4121"/>
	<stop  offset="0.5193" style="stop-color:#E8DD10;stop-opacity:0.5193"/>
	<stop  offset="0.6109" style="stop-color:#D5DE1C;stop-opacity:0.6109"/>
	<stop  offset="0.6924" style="stop-color:#BDDF2D;stop-opacity:0.6924"/>
	<stop  offset="0.7668" style="stop-color:#9FE141;stop-opacity:0.7668"/>
	<stop  offset="0.8358" style="stop-color:#7BE359;stop-opacity:0.8358"/>
	<stop  offset="0.9006" style="stop-color:#51E575;stop-opacity:0.9006"/>
	<stop  offset="0.9598" style="stop-color:#24E793;stop-opacity:0.9598"/>
	<stop  offset="1" style="stop-color:#00E9AB"/>
</radialGradient>
<path class="st3" d="M595.5,521.2c-6.5,3.4-12.3,5.5-18.7,6.1c-2.2,0.2-4.4,0-6.5-0.6c-2.6-0.5-4.5-2.7-4.6-5.4
	c-0.2-1.9-0.2-3.9,0-5.8c0.6-6.2,2.9-12.1,6.5-17.2c2.5-3.6,5.9-6.5,9.9-8.3c4.2-1.9,8.9-2.6,13.5-1.9c1.6,0.2,3.2,0.6,4.8,0.9
	c1,0.2,1.9,0.7,2.6,1.4c0.5,0.5,1,1,1.5,1.5c2,2.2,3.6,4.9,4.6,7.7c1,3.7,0.2,7.3-1.8,10.8c-1.9,3-4.3,5.6-7.2,7.7
	C598.5,519.3,596.5,520.5,595.5,521.2z"/>
<radialGradient id="SVGID_5_" cx="345.3632" cy="630.9482" r="28.9457" gradientUnits="userSpaceOnUse">
	<stop  offset="0" style="stop-color:#FFDC00;stop-opacity:0"/>
	<stop  offset="0.2744" style="stop-color:#FDDC02;stop-opacity:0.2744"/>
	<stop  offset="0.4121" style="stop-color:#F5DD07;stop-opacity:0.4121"/>
	<stop  offset="0.5193" style="stop-color:#E8DD10;stop-opacity:0.5193"/>
	<stop  offset="0.6109" style="stop-color:#D5DE1C;stop-opacity:0.6109"/>
	<stop  offset="0.6924" style="stop-color:#BDDF2D;stop-opacity:0.6924"/>
	<stop  offset="0.7668" style="stop-color:#9FE141;stop-opacity:0.7668"/>
	<stop  offset="0.8358" style="stop-color:#7BE359;stop-opacity:0.8358"/>
	<stop  offset="0.9006" style="stop-color:#51E575;stop-opacity:0.9006"/>
	<stop  offset="0.9598" style="stop-color:#24E793;stop-opacity:0.9598"/>
	<stop  offset="1" style="stop-color:#00E9AB"/>
</radialGradient>
<path class="st4" d="M337.5,655.4c-4.4,0.8-8.9,0.6-13.2-0.4c-10.6-2.6-16-11.1-6.5-18.8c3.2-2.8,6.2-5.8,9-9
	c5-5.7,10.6-10.8,16.9-15c3.2-2.1,6.7-3.7,10.3-4.9c8.2-2.5,14-0.8,18.1,2.6c6.7,5.5,7.4,12.2,3,18.8c-3.1,4.5-7.6,8.3-12.6,11.7
	C354.5,645.8,346.1,650.8,337.5,655.4z"/>
<radialGradient id="SVGID_6_" cx="703.366" cy="341.3162" r="37.2415" gradientUnits="userSpaceOnUse">
	<stop  offset="0" style="stop-color:#FFDC00;stop-opacity:0"/>
	<stop  offset="0.2744" style="stop-color:#FDDC02;stop-opacity:0.2744"/>
	<stop  offset="0.4121" style="stop-color:#F5DD07;stop-opacity:0.4121"/>
	<stop  offset="0.5193" style="stop-color:#E8DD10;stop-opacity:0.5193"/>
	<stop  offset="0.6109" style="stop-color:#D5DE1C;stop-opacity:0.6109"/>
	<stop  offset="0.6924" style="stop-color:#BDDF2D;stop-opacity:0.6924"/>
	<stop  offset="0.7668" style="stop-color:#9FE141;stop-opacity:0.7668"/>
	<stop  offset="0.8358" style="stop-color:#7BE359;stop-opacity:0.8358"/>
	<stop  offset="0.9006" style="stop-color:#51E575;stop-opacity:0.9006"/>
	<stop  offset="0.9598" style="stop-color:#24E793;stop-opacity:0.9598"/>
	<stop  offset="1" style="stop-color:#00E9AB"/>
</radialGradient>
<path class="st5" d="M680.3,376.9c-10.9-2.9-19.5-18.6-3-29.8c-1.2-8.1-8.7-16.3-7.8-24.5c1.2-10.5,12.5-19.5,24.1-20.3
	c3-0.2,6,0,7.5,0c7.5,2.8,7.2,18.2,7.2,18.2s28.6-18.3,30.4,10c0.1,2.3-0.1,4.6-0.8,6.8c-4.9,17.6-15.8,30.5-31.5,39.3
	C698.1,381.1,689.4,382.1,680.3,376.9z"/>
<radialGradient id="SVGID_7_" cx="708.5308" cy="175.3943" r="67.8277" gradientUnits="userSpaceOnUse">
	<stop  offset="0" style="stop-color:#FFDC00;stop-opacity:0"/>
	<stop  offset="0.2744" style="stop-color:#FDDC02;stop-opacity:0.2744"/>
	<stop  offset="0.4121" style="stop-color:#F5DD07;stop-opacity:0.4121"/>
	<stop  offset="0.5193" style="stop-color:#E8DD10;stop-opacity:0.5193"/>
	<stop  offset="0.6109" style="stop-color:#D5DE1C;stop-opacity:0.6109"/>
	<stop  offset="0.6924" style="stop-color:#BDDF2D;stop-opacity:0.6924"/>
	<stop  offset="0.7668" style="stop-color:#9FE141;stop-opacity:0.7668"/>
	<stop  offset="0.8358" style="stop-color:#7BE359;stop-opacity:0.8358"/>
	<stop  offset="0.9006" style="stop-color:#51E575;stop-opacity:0.9006"/>
	<stop  offset="0.9598" style="stop-color:#24E793;stop-opacity:0.9598"/>
	<stop  offset="1" style="stop-color:#00E9AB"/>
</radialGradient>
<path class="st6" d="M737.2,240.5c-1-0.9-2.1-1.5-2.6-2.4c-0.6-1.1-3.9-4.2-4.2-5.5c-16.3-12.1-11.3-8.4-22.2-16
	c-9.7-9-11.9-9.8-18.9-14.7c-4.2-3-8.3-4.7-13.1-9.4c-16.4-9.8-12.3-9.8-26.4-14.6c-1.6,0.4-1.8-1.2-3.5-0.4
	c-5.3-8.4-8.9-16.4-8.3-25.7c0.7-9.9,6.9-15.1,15-17.4c6.6-1.9,13.7-1.7,20.2,0.5c3.3,1.1,5.3,3.5,8.1,5.3c2.1-1.2,2.3-3.4,2.9-5.3
	c2.4-7.7,7.4-14.4,14.1-19c14.2-9.8,33.5-6.5,43.7,7.4c7.3,9.8,8.8,20.9,7.3,32.6c-0.7,5.1-1.9,10-3,15.4c0.9-0.3,1.9-0.6,2.8-0.9
	c12.3-5.5,24,2.2,27.6,12.6c3.5,9.9,2.5,19.4-2.4,28.7c-6.3,12-16,20.3-27.5,26.8C744.6,239.8,740.2,239,737.2,240.5z"/>
<radialGradient id="SVGID_8_" cx="543.7159" cy="380.3977" r="55.673" gradientUnits="userSpaceOnUse">
	<stop  offset="0" style="stop-color:#FFDC00;stop-opacity:0"/>
	<stop  offset="0.2744" style="stop-color:#FDDC02;stop-opacity:0.2744"/>
	<stop  offset="0.4121" style="stop-color:#F5DD07;stop-opacity:0.4121"/>
	<stop  offset="0.5193" style="stop-color:#E8DD10;stop-opacity:0.5193"/>
	<stop  offset="0.6109" style="stop-color:#D5DE1C;stop-opacity:0.6109"/>
	<stop  offset="0.6924" style="stop-color:#BDDF2D;stop-opacity:0.6924"/>
	<stop  offset="0.7668" style="stop-color:#9FE141;stop-opacity:0.7668"/>
	<stop  offset="0.8358" style="stop-color:#7BE359;stop-opacity:0.8358"/>
	<stop  offset="0.9006" style="stop-color:#51E575;stop-opacity:0.9006"/>
	<stop  offset="0.9598" style="stop-color:#24E793;stop-opacity:0.9598"/>
	<stop  offset="1" style="stop-color:#00E9AB"/>
</radialGradient>
<path class="st7" d="M574.7,417.3c-11,10.5-22.3,17.1-36.5,19.5c-5.4,0.8-10.8,0.5-16.1-0.8c-8-1.9-13.9-7.2-17.9-14.7
	c-2.9-5.3-5.4-10.8-7.5-16.5c-6-17.2-8.9-27.8-6.6-43.5c1.5-10.3,5.4-18.9,12.9-24.8c7.9-6.2,18-14.2,29.7-13
	c4.2,0.4,8.4,1.3,12.6,1.9c2.9,0.5,5.6,1.7,7.9,3.5c1.9,1.3,3.7,2.6,5.5,4.1c7.6,6.5,24.6,9.7,30.3,17.9c7.2,10.3,9.4,19.2,9.1,29.4
	c-0.3,8.8-12.3,20.8-16.4,27.3C579.3,411.7,576.3,415.2,574.7,417.3z"/>
<radialGradient id="SVGID_9_" cx="36.0935" cy="723.7278" r="33.3244" gradientUnits="userSpaceOnUse">
	<stop  offset="0" style="stop-color:#FFDC00;stop-opacity:0"/>
	<stop  offset="0.2744" style="stop-color:#FDDC02;stop-opacity:0.2744"/>
	<stop  offset="0.4121" style="stop-color:#F5DD07;stop-opacity:0.4121"/>
	<stop  offset="0.5193" style="stop-color:#E8DD10;stop-opacity:0.5193"/>
	<stop  offset="0.6109" style="stop-color:#D5DE1C;stop-opacity:0.6109"/>
	<stop  offset="0.6924" style="stop-color:#BDDF2D;stop-opacity:0.6924"/>
	<stop  offset="0.7668" style="stop-color:#9FE141;stop-opacity:0.7668"/>
	<stop  offset="0.8358" style="stop-color:#7BE359;stop-opacity:0.8358"/>
	<stop  offset="0.9006" style="stop-color:#51E575;stop-opacity:0.9006"/>
	<stop  offset="0.9598" style="stop-color:#24E793;stop-opacity:0.9598"/>
	<stop  offset="1" style="stop-color:#00E9AB"/>
</radialGradient>
<path class="st8" d="M72.1,736.7c0.2,3.9-1.1,7.7-3.6,10.6c-6.5,8-20.9,10-30.9,0.1c-3.8-3.6-7.8-6.9-12-9.9
	c-7.4-5.5-14.4-11.3-19.7-18c-2.4-2.9-4.2-6.2-5.3-9.8c-2.1-7.4,1.9-11.6,8.1-14c10.1-3.9,20.8-2.7,30,2.8
	c5.9,3.6,11.2,8.2,15.6,13.5C60.8,719.8,66.8,728,72.1,736.7z"/>
<radialGradient id="SVGID_10_" cx="807.4905" cy="291.0283" r="28.8896" gradientUnits="userSpaceOnUse">
	<stop  offset="0" style="stop-color:#FFDC00;stop-opacity:0"/>
	<stop  offset="0.2744" style="stop-color:#FDDC02;stop-opacity:0.2744"/>
	<stop  offset="0.4121" style="stop-color:#F5DD07;stop-opacity:0.4121"/>
	<stop  offset="0.5193" style="stop-color:#E8DD10;stop-opacity:0.5193"/>
	<stop  offset="0.6109" style="stop-color:#D5DE1C;stop-opacity:0.6109"/>
	<stop  offset="0.6924" style="stop-color:#BDDF2D;stop-opacity:0.6924"/>
	<stop  offset="0.7668" style="stop-color:#9FE141;stop-opacity:0.7668"/>
	<stop  offset="0.8358" style="stop-color:#7BE359;stop-opacity:0.8358"/>
	<stop  offset="0.9006" style="stop-color:#51E575;stop-opacity:0.9006"/>
	<stop  offset="0.9598" style="stop-color:#24E793;stop-opacity:0.9598"/>
	<stop  offset="1" style="stop-color:#00E9AB"/>
</radialGradient>
<path class="st9" d="M780.5,274.4c6.7-4.8,13.5-8.6,20.7-10.5c5.9-1.5,11.9-2.1,18-1.9c7.7,0.3,15,9.1,16.4,18.7
	c0.4,2.5,0.5,5,0.6,6.2c-1.5,6.4-3,11.6-3.9,16.9c-1.5,9-7.1,13.2-13.9,15.9c-1.5,0.6-3.4,0.2-5-0.2c-13.1-2.9-23.3-11.2-30.8-23.7
	C778.7,289.4,777.4,282.2,780.5,274.4z"/>
<radialGradient id="SVGID_11_" cx="624.4587" cy="630.9582" r="24.4947" gradientUnits="userSpaceOnUse">
	<stop  offset="0" style="stop-color:#FFDC00;stop-opacity:0"/>
	<stop  offset="0.2744" style="stop-color:#FDDC02;stop-opacity:0.2744"/>
	<stop  offset="0.4121" style="stop-color:#F5DD07;stop-opacity:0.4121"/>
	<stop  offset="0.5193" style="stop-color:#E8DD10;stop-opacity:0.5193"/>
	<stop  offset="0.6109" style="stop-color:#D5DE1C;stop-opacity:0.6109"/>
	<stop  offset="0.6924" style="stop-color:#BDDF2D;stop-opacity:0.6924"/>
	<stop  offset="0.7668" style="stop-color:#9FE141;stop-opacity:0.7668"/>
	<stop  offset="0.8358" style="stop-color:#7BE359;stop-opacity:0.8358"/>
	<stop  offset="0.9006" style="stop-color:#51E575;stop-opacity:0.9006"/>
	<stop  offset="0.9598" style="stop-color:#24E793;stop-opacity:0.9598"/>
	<stop  offset="1" style="stop-color:#00E9AB"/>
</radialGradient>
<path class="st10" d="M650.7,637.2c-0.9-7.3-25.7-28.1-31.2-28.6c-5.5-0.6-23.6,2.3-21.1,21.1c0.9,6.7,32,21.9,39.4,23.6
	C645.2,654.9,651.9,647.1,650.7,637.2z"/>
</svg>
