<svg id="Layer_1" data-name="Layer 1" xmlns="http://www.w3.org/2000/svg" width="14.16in" height="10.47in" viewBox="0 0 1019.62 754.06">
  <defs>
    <style>
      .cls-1, .cls-10, .cls-2, .cls-3, .cls-4, .cls-5, .cls-6, .cls-7, .cls-8, .cls-9 {
        fill: #00c185;
      }

      .cls-1 {
        opacity: 0.25;
      }

      .cls-2 {
        opacity: 0.73;
      }

      .cls-3 {
        opacity: 0.51;
      }

      .cls-4 {
        opacity: 0.37;
      }

      .cls-5 {
        opacity: 0.64;
      }

      .cls-6 {
        opacity: 0.17;
      }

      .cls-7 {
        opacity: 0.44;
      }

      .cls-8 {
        opacity: 0.82;
      }

      .cls-9 {
        opacity: 0.19;
      }

      .cls-10 {
        opacity: 0.53;
      }
    </style>
  </defs>
  <path class="cls-1" d="M1003.4,0c-3.86,0-11.57,0-10.79,3.86s17.72,18.48,25.42,17.71S1003.4,0,1003.4,0Z" transform="translate(-0.02 0)"/>
  <path class="cls-2" d="M274.6,667.16c-4.24-2.2-26.6,2.85-29.44,5.46s-9.7,12.85,1.3,18.46c3.88,2,26.33-8.33,30.63-11.49S280.36,670.15,274.6,667.16Z" transform="translate(-0.02 0)"/>
  <path class="cls-3" d="M435.68,526.39c-9.44,4-30.63,9-42.14,31.75s16.63,38.12,24.91,35.87c10.36-2.82,35.59-27.66,40.78-36.32s24.33-39.84,6.77-46.38S435.68,526.39,435.68,526.39Z" transform="translate(-0.02 0)"/>
  <path class="cls-4" d="M595.48,521.17c-6.48,3.41-12.33,5.48-18.65,6.06a18.35,18.35,0,0,1-6.47-.57,5.79,5.79,0,0,1-4.62-5.39,28.4,28.4,0,0,1,0-5.83,35.89,35.89,0,0,1,6.5-17.18,24.8,24.8,0,0,1,9.94-8.33,24.25,24.25,0,0,1,13.52-1.88c1.63.23,3.21.6,4.83.88a5,5,0,0,1,2.56,1.36,15.17,15.17,0,0,1,1.49,1.51,22.38,22.38,0,0,1,4.55,7.73c1,3.67.25,7.25-1.77,10.76a26.28,26.28,0,0,1-7.19,7.7C598.48,519.3,596.54,520.48,595.48,521.17Z" transform="translate(-0.02 0)"/>
  <path class="cls-5" d="M337.47,655.36a31.4,31.4,0,0,1-13.16-.43c-10.62-2.61-16-11.07-6.51-18.83a85,85,0,0,0,9-9,87.64,87.64,0,0,1,16.87-15A40.18,40.18,0,0,1,354,607.23c8.23-2.52,14-.77,18.06,2.57,6.7,5.5,7.42,12.21,3,18.76-3.06,4.5-7.6,8.3-12.58,11.74A245.63,245.63,0,0,1,337.47,655.36Z" transform="translate(-0.02 0)"/>
  <path class="cls-1" d="M680.28,376.91c-10.89-2.85-19.53-18.58-3-29.81-1.22-8.12-8.66-16.32-7.77-24.48,1.16-10.54,12.46-19.45,24.08-20.28,3-.22,6,0,7.51,0,7.49,2.8,7.16,18.21,7.16,18.21s28.57-18.29,30.39,10a21.58,21.58,0,0,1-.75,6.78c-4.87,17.58-15.75,30.53-31.52,39.26C698.13,381.12,689.37,382.05,680.28,376.91Z" transform="translate(-0.02 0)"/>
  <path class="cls-6" d="M737.18,240.52c-1-.89-2.06-1.46-2.56-2.36-.63-1.13-3.91-4.18-4.15-5.49-16.28-12.1-11.29-8.42-22.18-16-9.73-9-11.86-9.78-18.86-14.73-4.2-3-8.34-4.67-13.08-9.35-16.42-9.81-12.3-9.75-26.37-14.57-1.64.44-1.77-1.19-3.52-.44-5.26-8.38-8.94-16.43-8.28-25.74.7-9.92,6.89-15.13,15-17.4a33.83,33.83,0,0,1,20.21.51c3.29,1.09,5.33,3.48,8.07,5.29,2.07-1.22,2.26-3.4,2.91-5.33a36.27,36.27,0,0,1,14.1-19,31.75,31.75,0,0,1,43.7,7.38c7.25,9.75,8.82,20.9,7.3,32.64-.65,5.06-1.94,10-3,15.44a28.8,28.8,0,0,0,2.76-.92c12.25-5.49,24,2.23,27.64,12.56,3.5,9.9,2.48,19.37-2.43,28.74-6.29,12-16,20.3-27.52,26.76C744.6,239.84,740.17,239,737.18,240.52Z" transform="translate(-0.02 0)"/>
  <path class="cls-7" d="M574.73,417.33c-11,10.47-22.26,17.08-36.53,19.53a40.64,40.64,0,0,1-16.1-.81c-8-1.85-13.89-7.19-17.88-14.66a119,119,0,0,1-7.54-16.49c-6-17.16-8.87-27.81-6.57-43.46,1.51-10.26,5.41-18.94,12.92-24.83,7.85-6.15,18-14.24,29.7-13,4.16.43,8.4,1.29,12.59,1.87a18.4,18.4,0,0,1,7.85,3.53c1.85,1.31,3.74,2.59,5.47,4.07,7.55,6.48,24.55,9.72,30.31,17.94,7.19,10.27,9.43,19.21,9.14,29.4-.26,8.76-12.28,20.76-16.37,27.33C579.25,411.68,576.27,415.24,574.73,417.33Z" transform="translate(-0.02 0)"/>
  <path class="cls-8" d="M72.14,736.66a15,15,0,0,1-3.62,10.63c-6.46,8-20.9,10-30.91.07a114.71,114.71,0,0,0-12-9.88c-7.35-5.51-14.35-11.26-19.72-18a27.94,27.94,0,0,1-5.31-9.79c-2.09-7.42,1.94-11.64,8.06-14,10.09-3.94,20.76-2.66,30,2.79A61.29,61.29,0,0,1,54.21,712,206.06,206.06,0,0,1,72.14,736.66Z" transform="translate(-0.02 0)"/>
  <path class="cls-9" d="M780.49,274.36c6.71-4.78,13.45-8.57,20.72-10.46a61.75,61.75,0,0,1,18-1.86c7.74.3,15,9.11,16.44,18.68.37,2.45.45,5,.56,6.22-1.51,6.38-3,11.58-3.94,16.92-1.54,9-7.07,13.24-13.93,15.94-1.46.57-3.36.16-5-.2-13.13-2.94-23.31-11.15-30.77-23.67C778.69,289.42,777.39,282.22,780.49,274.36Z" transform="translate(-0.02 0)"/>
  <path class="cls-10" d="M650.66,637.16c-.9-7.31-25.67-28.09-31.19-28.64s-23.58,2.3-21.13,21.11c.86,6.65,32,21.93,39.41,23.6S651.89,647.08,650.66,637.16Z" transform="translate(-0.02 0)"/>
</svg>
