<?xml version="1.0" encoding="utf-8"?>
<!-- Generator: Adobe Illustrator 24.1.2, SVG Export Plug-In . SVG Version: 6.00 Build 0)  -->
<svg version="1.1" id="Layer_1" xmlns="http://www.w3.org/2000/svg" xmlns:xlink="http://www.w3.org/1999/xlink" x="0px" y="0px"
	 viewBox="0 0 1774.1 3360.2" style="enable-background:new 0 0 1774.1 3360.2;" xml:space="preserve">
<style type="text/css">
	.st0{fill:#FFCC02;}
</style>
<path class="st0" d="M1069.8,1832.6c3.5,0.2,6-0.2,8.1,0.5c6.2,2,8.1,11.3,3.3,15.7c-2.2,2.2-5.5,2.9-8.4,1.9
	c-3-0.9-5.1-3.5-5.4-6.6c-0.3-2.6-0.1-5.3-0.1-8.8c-135.9-126.7-289.7-226-463-295.9c-1.5,10.1,0.5,19.3,1,28.5
	c0.6,11.6,1.6,23.2,2.5,34.8c0.9,12.9,1.9,25.8,2.7,38.8c0.8,12.9,1.6,25.9,2.3,38.8c1,16.6,2,33.1,2.9,49.7
	c0.5,8.3,0.8,16.6,1.1,24.9c0.4,13,0.6,25.9,1,38.9c0.6,16,1.3,31.9,1.9,47.8c0.1,2.7,0,5.3,0,8c0,47.7,0.2,95.3-0.1,143
	c-0.1,15.6-1.3,31.2-1.9,46.8c-0.4,10-0.6,19.9-1,29.9c-0.8,16.3-1.9,32.5-2.8,48.7c-0.7,12.6-1.3,25.2-2.3,37.8
	c-1.2,15.6-2.4,31.1-4,46.6c-3.8,35-7.6,70-12,104.9c-7.6,60.4-18.4,120.3-30.9,179.8c-11.3,54.1-24.9,107.7-40.6,160.7
	c-7.3,24.6-15.7,48.8-23.6,73.2c-1.7,5.4-3.5,10.8-5.6,16.9c2.3,1.3,4.5,2.7,6.8,3.7c15,6.5,20,19.7,22.5,34.2
	c0.6,3.3-0.7,7.4-2.1,10.6c-2.2,4.5-4.8,8.7-7.8,12.7c-5.7,7.8-13.9,10.7-22.9,8.8c-17.7-3.8-30.8-14.2-37.9-30.9
	c-5-11.7-2.3-25.9,6.4-33.1c4.8-4.2,10.8-6.7,17.2-7c4.3-0.2,8.7,0,13.6,0c0.8-1.3,1.4-2.6,2-4c13.2-37.4,25.3-75.1,35.6-113.4
	c7.4-27.6,15.2-55.2,21.8-83c7.3-30.7,13.6-61.7,19.9-92.7c12.4-61.3,21.2-123.1,28.2-185.2c3.2-28.7,6-57.4,8.8-86.2
	c1.1-11.2,1.5-22.5,2.2-33.8c0.9-13.3,2-26.5,2.8-39.7c0.5-7.3,0.8-14.6,1.1-21.9c0.4-10.3,0.7-20.6,1.1-30.9
	c0.6-15.3,1.3-30.6,1.9-45.8c0.1-2.7,0.1-5.3,0.1-8c0-38.3,0.1-76.7,0-115c-0.1-23.3-0.5-46.6-1-69.9c-0.4-17.6-1.2-35.2-2-52.8
	c-0.9-20.6-1.8-41.2-3-61.7c-1.4-23.2-3.3-46.4-4.9-69.6c-1.1-16.6-2-33.1-3.1-49.7c-0.7-10.3-1.4-20.5-2.2-30.8
	c-0.3-2.1-0.8-4.1-1.5-6.1c-5.5-2.4-11-4.7-16.4-7.2c-25.7-11.7-51.7-23-77.1-35.4c-24-11.7-46-26.7-64.6-46.3
	c-10.2-10.7-18.9-22.3-24.9-35.9c-0.6-1.3-0.6-2.8,0.6-4.9c1.2,1.4,2.3,2.8,3.2,4.4c11.8,25.7,31.4,44.2,54.2,59.9
	c17.1,11.8,35.5,21.2,54.1,29.9c20.2,9.5,40.7,18.2,61.1,27.2c2.7,1.2,5.6,1.9,8.4,2.9c1.6-7.7-4.4-91.4-7.7-108.5
	c-12.6-8-25.6-16.2-38.4-24.4c-18.8-12-37.6-24-54.7-38.4c-7.6-6.4-14.5-13.7-21.4-20.9c-2.9-3-5.3-6.8-4.2-12
	c1.1,0.8,2.3,1.2,2.6,1.9c4.3,10.6,12.3,18,20.9,25c21.4,17.5,44.6,32.6,67.9,47.4c6.8,4.3,13.5,8.5,20.3,12.7c2,1,4,2,6.1,2.8
	c1.6-10.3-0.6-19.7-1.1-29.2c-0.5-9.9-1.5-19.9-2.2-29.8c-0.7-9.6-1.4-19.2-2-28.8c-0.6-9.6-0.9-19.2-1.4-28.9
	c-14.2-10.8-28.3-21.4-42.2-32.2c-13.5-10.5-26.6-21.3-37.7-34.5c7.7,3.4,12.8,9.9,19.2,14.8c6.6,5,12.7,10.8,19.1,16
	c6.2,5,12.5,10,18.9,14.7c6.6,4.8,12.8,10.3,20.8,13.7c1.8-5.5,1-10.5,1-15.4c-0.1-8.3-0.6-16.6-0.9-24.9c-0.1-4.7,0-9.3,0-14
	c-0.5-26.3,1.5-52.5,6-78.4c4.6-26.2,9.1-52.5,17.6-77.8c4.3-12.9,8.6-25.9,13.6-38.5c12-30,27.7-58.5,46.7-84.6
	c10.3-14.2,21.5-27.8,33.6-40.5c17-17.9,35.5-34.2,55.4-48.8c20.5-14.9,42.2-28,65-39c33.3-16.1,68.2-28.6,104.2-37.1
	c28.1-6.7,56.7-11.3,85.6-13.8c21.2-2,42.5-2.8,63.8-2.2c47.2,1.4,94.2,7.6,140.1,18.6c46,11.1,90.4,28.2,132,50.8
	c36.2,19.7,69,44,97.4,74c4.6,4.8,9,9.8,13.4,14.7c1.9-1.2,3.7-2.8,5.6-3.2c1.8-0.3,3.9,0.5,5.7,1.2c1.8,0.8,3.5,1.9,5,3.2
	c9.7,9.2,19.4,18.4,25.8,30.3c2,3.5,3.4,7.2,4.5,11c1.7,7.2-2,11.7-9.3,11.8c-10.9,0.2-18.2-6-23.1-14.8c-3-5.4-4.9-11.6-6.7-17.7
	c-2-7-5.3-13.6-9.9-19.3c-20-24.4-43.5-44.9-69.2-63c-22.7-15.8-46.8-29.5-71.9-41c-26.3-12-53.6-22-81.4-29.9
	c-34.6-9.9-70-15.8-105.7-20.1c-12.8-1.5-25.9-1.6-38.8-2.2c-10-0.5-19.9-1-29.9-1c-41.2,0.4-82.3,5-122.6,13.8
	c-34.8,7.5-68.8,18.7-101.2,33.4c-27,12.3-52.7,27.3-76.6,44.7c-45,32.4-82.5,74.1-110,122.3c-17.9,31.1-30.9,64.1-41,98.4
	c-8.7,29.5-13.2,59.7-17.7,90c-1.9,12.8-2,25.8-2.4,38.8c-0.4,12-0.2,24,0,36c0.2,12.6,0.8,25.3,1.3,38.7c3.9,2.8,8,6.2,12.5,9
	c39.9,25.3,79.8,50.6,119.9,75.6c40.7,25.4,81.1,51.1,119.2,80.4c22.4,17.2,44.2,35.2,64.6,54.8c7.4,7.2,15,14.1,22.4,21.3
	c18.6,18.1,35.5,37.9,51.9,58c1.6,2.1,3,4.3,4.3,6.6c0.1,0.1-0.3,0.5-0.8,1.4c-1.5-1.1-2.9-2.3-4.1-3.6
	c-20.8-26.4-43.5-51.3-67.8-74.5c-19.3-18.4-39.6-35.5-60.5-52c-38.6-30.7-80-57.5-121.7-83.7c-43.6-27.5-88.3-53.5-130.9-82.6
	c-2.1-1.5-4.4-2.7-6.3-3.8c-1,0.6-1.3,0.7-1.4,0.9c-0.2,0.3-0.3,0.6-0.3,0.9c-0.2,2-0.3,4-0.2,6c2.4,34.4,4.8,68.9,7.3,103.3
	c0.3,2.2,0.8,4.3,1.4,6.4c13.9,8.5,28.1,17.1,42.2,25.9c36.5,22.7,73.4,44.6,107.6,70.7c8.7,6.6,17,13.9,25.3,20.9
	c0.8,0.7,0.8,2.2,1.5,4.5c-2.3-0.8-3.9-0.8-4.5-1.6c-5.5-7.8-13.5-12.7-20.7-18.4c-19.4-15.3-39.9-28.9-60.9-41.8
	c-25.8-15.9-51.4-32-77.2-47.9c-3.6-2.2-7-5.1-11.3-5.9c-2.7,2.7-1.9,5.9-1.7,8.7c0.9,13.2,2.2,26.5,3.3,39.7
	c1.3,15.6,2.4,31.1,3.7,46.7c0.3,3.6,0.9,7.2,1.4,11.6c85.7,35.9,168.8,77,247.1,127.5C928.7,1712.5,1001.4,1769.6,1069.8,1832.6z"
	/>
<path class="st0" d="M520.1,2866c13.1-13.6,20.8-30.6,27.9-47.7c9.3-22.7,16.5-46.3,21.3-70.4c2.4-12.1,0.7-46.8-1.4-59
	c0,0,15.3-17.6,32.9-25.6c7.2-3.4,15.1-5.2,23.1-5.2c9.6,0.1,19.2-0.4,28.7,2.4c15.3,4.6,27.3,13.5,35.7,27
	c5.4,8.6,6.3,18.2,5.2,27.9c-0.6,5.6-1.9,11.1-4,16.4c-5.2,12.3-12.1,23.7-21.6,33.3c-8.4,8.5-17.2,16.7-25.7,25
	c-0.5,0.8-1,1.6-1.4,2.5c1.3,2.8,2.7,6.1,4.4,9.3c8.4,15.5,13.3,32.7,14.3,50.3c1.6,30.3-16.6,54.4-45.4,60.2
	c-17.8,3.6-34.1,0.1-50.2-7.2c-17.8-8.1-31.3-21-42.9-36.3c-0.4-0.5-0.7-1.1-1-1.7C520.1,2866.8,520,2866.4,520.1,2866z"/>
<path class="st0" d="M457.9,2677.5c-0.5,2.3-0.5,4.4-1.4,5.9c-1.3,1.9-2.9,3.6-4.8,5.1c-18.3,15.5-32.1,34.4-43.1,55.6
	c-7,13.4-10.6,27.9-12.2,42.8c-0.9,9,0.8,17.9,2.9,26.6c5.2,21.6,16.4,39.8,31.8,55.5c2.1,2.1,4.7,3.7,7.4,5.8
	c-8.2,15.2-17.3,27.7-31.9,34.7c-15.6,7.5-28.8,2.5-39.2-8c-8.5-8.5-14.3-19.4-16.5-31.3c-1.2-6,0.7-11.1,1.1-16.9
	c-3.6-2.1-7.1-0.5-10.6,0.1c-14.2,2.7-27.9,1.2-40.8-5.2c-27.4-13.8-38.1-45.7-26.1-73c8.6-19.4,24.1-31.4,43.2-39.2
	c8.2-3.4,16.9-5.7,25.9-8.6c-1.2-1.2-2.4-2.4-3.7-3.4c-18.8-14-17.1-38.5-4.5-53c12-13.8,27.2-20.4,45.6-21c23.6-0.7,44.4,7,64,19
	C449.2,2671.5,453,2674.2,457.9,2677.5z"/>
<path class="st0" d="M679.7,231.8c-0.6,27.2-5,49.8-16,70.9c-3.9,7.4-9.2,13.9-15.6,19.2c-9,7.7-19.4,8.3-29.9,3.9
	c-7.7-3.2-15.1-7-22.1-11.5c-21.3-14.3-39.1-31.9-51.3-54.8c-8-15-12.3-31-10.7-47.9c1.6-17.7,9.1-33.2,21-46.4
	c4.2-4.7,9-8.9,13.4-13.5c2.9-2.8,6.5-4.7,10.5-5.4c2.9-0.8,5.8-1.3,8.8-1.7c12.9-1.3,25.8-2.2,38.6,1.1c16,4,27.9,13.7,36.9,27
	c7.8,11.5,11.9,24.5,14.1,38C678.7,218.9,679.3,227.2,679.7,231.8z"/>
<path class="st0" d="M1138.9,301c-0.8-2.6-3.6-3.2-4.5-6c-1.2-0.3-3.3-6.9-4.5-7.1c-18.3-2-33.1-2.1-49.7-10.2
	c-12.9-6.3-23.4-15-30.1-27.9c-2.7-5.3-4.3-11.2-4.6-17.2c-1.5-20.1,5.8-37.3,18.4-52.3c6.2-7.4,13.4-14,21.4-19.4
	c10.8-7.4,23.9-10.7,36.9-9.2c10.4,1,17.4,7.8,22.9,16c5,7.6,7,16.5,8.8,25.3c0.9,4.5,1.5,9.1,2.3,14.2c5.7-1.5,11-3.2,16.4-4.4
	c10-2.4,20-4.8,30.4-4.6c7,0.1,13,2,18,7.7c0.8,2.6,1.6,5.4,2.7,9.2c-1.6,5-2.9,10.8-5.2,16.2c-5.8,13.3-14.8,24.4-24.4,35
	c-5.6,6.2-11.7,11.9-17.6,17.7c-6.7,6.5-14.4,11.9-22.8,16.1C1149.1,302.2,1144.7,303.1,1138.9,301z"/>
<path class="st0" d="M887.3,324c-15.7,1.4-27.4-5.1-38.5-12.6c-15.8-10.6-27.2-25.3-36.9-41.4c-9.2-15.1-14.5-32.3-15.7-49.9
	c-0.6-10,1.7-20,6.7-28.8c5-8.9,12.8-15,22.2-19.2c8.6-3.8,16.8-4.6,25.8-0.5c10,4.5,19.2,10.6,27.3,18
	c24.6,22.7,37.2,51.4,43.1,83.6c1.8,9.7,3.7,19.6,0.7,29.5c-0.9,2.9-1.3,5.9-2.6,8.6c-1.1,2.3-2.8,5.1-5,5.9
	C905.2,320.6,896.6,326.8,887.3,324z"/>
<path class="st0" d="M818,2202.3c-12.7,4.1-46.1,26-71.2,46.4c-22.2,18-43.6,36.9-62,59c-18,21.7-34.9,44.2-49.6,68.4l-1.8-0.8
	c0.1-1-0.2-2.3,0.3-3.1c13.2-21.6,27.5-42.5,44.4-61.3c9.8-10.9,19.2-22.1,29.7-32.3c24.7-24.2,51.8-45.8,81-64.5
	c39.1-24.9,81.3-44.4,125.6-58c34.7-10.7,70.3-18,106.4-21.6c22.5-2.4,45.1-3.4,67.7-2.8c24.9,0.8,49.7,3.4,74.3,7.5
	c32.5,5.4,64.4,14.2,95.1,26.3c32.3,12.6,62.9,29.1,91.3,49c22.3,15.8,42.9,33.8,61.7,53.6c23.6,24.9,43.9,52.7,60.4,82.7
	c14.8,26.9,26.8,55.2,35.6,84.6c10,33.1,16.6,67.2,19.6,101.7c2,23.6,3.5,47.1,2.7,70.7c-0.7,20.6-2.1,41.1-4,61.6
	c-4,42.8-12.2,84.9-22.9,126.5c-6.2,24.2-13.6,48-20.5,72c-0.4,1.2-0.8,2.4-1.1,3.5c16.5,12.6,20.9,24.1,14,37.2
	c-6,11.4-17,15.7-29.6,12.9c-12.2-2.7-19.6-14.9-18.3-28.4c1.3-13,11.1-20.5,28.6-22c10.1-15.4,41-141.2,40.9-165.9
	c-0.3-0.2-0.6-0.4-0.9-0.5c-0.3-0.2-0.6-0.3-0.9-0.4c-0.3-0.1-0.7-0.1-1-0.1l-1-0.1H823.7c-0.3,0-0.7,0-1,0s-0.7,0-1-0.1
	c-0.3,0-0.7-0.1-1-0.2c-0.2-0.1-0.4-0.2-0.6-0.3c-0.3-0.3-0.7-0.6-0.9-0.9c-0.2-0.3-0.2-0.6-0.3-0.9c-0.1-0.7-0.2-1.3-0.2-2
	c0-0.7,0-1.3,0-2c0-164,0-328,0-491.9c0-0.7-0.1-1.3-0.2-2C818.4,2203.5,818.3,2203.2,818,2202.3z M820.5,2199.8v487.8
	c0,2.7-0.1,5.3,0,8c0.1,1.9,0.5,3.8,0.8,5.8c4.6,1.9,9,1.1,13.2,1.1c223.3,0,446.7,0,670,0c2.3,0,4.7,0.1,7,0
	c1.9-0.1,3.8-0.5,5.5-0.8c0.5-1,1-2.1,1.3-3.3c2-15.8,4.5-31.5,5.7-47.4c1.2-16.2,1.5-32.6,1.6-48.9c0.1-11.6-0.4-23.3-0.9-34.9
	c-0.6-12.6-1.4-25.2-2.6-37.8c-3-27.5-8.1-54.6-15.4-81.3c-8.3-30.2-19.6-59.4-33.9-87.3c-9.7-19-21-37.1-33.9-54.1
	c-8-10.6-15.7-21.6-24.9-31.1c-15.5-16-31.4-31.7-49.2-45.3c-18.8-14.4-38.4-27.7-59.2-38.9c-35.5-19.1-73.4-33.5-112.6-42.8
	c-56.1-13.3-114-17-171.3-10.9c-51.1,5-100.2,17.4-147.8,36.4C855.5,2181.6,837.7,2190.1,820.5,2199.8L820.5,2199.8z"/>
<path class="st0" d="M359.1,373.5c1.1,8.6-0.4,17.4-4.3,25.2c-9.6,19.7-33.7,27.8-52.4,7.5c-6.8-7.4-14.4-13.5-22.1-19.8
	c-13.4-10.9-26.3-22.4-36.6-36.5c-4.8-6.4-8.4-13.6-10.7-21.2c-4.9-16.5,1.2-27.1,11.2-34c16.4-11.4,34.7-11,51.4-0.7
	c11.4,7.1,20.6,16.8,28.8,27.4C337.2,337.9,348.8,355.3,359.1,373.5z"/>
<path class="st0" d="M1558.1,2703.6c2.6-22.2,5.2-44.3,7.7-66.4c2.5-23.2,3.5-46.4,3-69.7c-0.7-35.6-3.9-71-10.7-106
	c-5.8-29.4-14.4-58.2-25.7-85.9c-15.8-38.7-36.7-74.7-63.6-106.8c-7.5-8.9-14.9-17.9-23-26.2c-15.3-15.3-31.6-29.5-49-42.5
	c-21.1-15.7-43.5-29.5-67.1-41.3c-17.8-9-36.2-16.8-55.1-23.4c-36.5-12.7-74.2-21.6-112.5-26.5c-13.8-1.8-27.8-2.9-41.7-3.4
	c-19.6-0.8-39.3-1.7-58.9-0.9c-23.2,0.9-46.4,3.1-69.4,6.6c-49.7,7.6-98.3,21.2-144.8,40.4c-43.5,17.8-84.6,41.1-122.1,69.4
	c-24.4,18.5-47.8,38.3-68,61.5c-15.3,17.6-30,35.5-43.1,55.5c3.6,8.2,4,10.9,0.9,20.1c-11.2,11.6-29.6,19.4-44.1,16.6
	c-14-2.3-17.6-19-8.9-29.9c10.6-6.6,30.6-10.4,48.8-8.5c1.7-2.1,3.1-3.9,4.5-5.8c17.9-25.7,37.8-49.9,60.5-71.6
	c33.2-31.8,70.3-59.3,110.5-81.6c28.8-16,58.9-29.6,89.9-40.7c28.5-10.3,57.8-18.2,87.6-23.7c17.3-3.1,34.7-5.9,52.2-8.2
	c11.8-1.6,23.8-2.3,35.7-2.8c16-0.7,31.9-1,47.9-1c35.4,0.1,70.3,4.6,104.9,11.5c23.8,4.8,47.3,11.3,70.3,19.3
	c25.1,8.9,49.5,19.8,72.7,32.7c20.8,11.3,40.5,24.3,59.1,38.9c9.4,7.4,18.3,15.5,27,23.7c9.4,8.9,18.9,17.8,27.4,27.5
	c9.7,11,18.8,22.4,27.4,34.3c25.7,35.3,44.7,74,58.2,115.4c10.9,33.9,18.4,68.8,22.4,104.2c1.4,12.2,1.7,24.5,2.3,36.8
	c0.5,11,0.8,21.9,1,32.9c0.5,28-2.2,55.8-5.4,83.5c-1.3,11.6-3,23.1-4.7,34.6c-0.8,5-1.6,9.7,0.6,14.6c1.4,2.8,0.4,6.3-2.2,8
	c-3.2,2.3-7.6,2-10-0.8c-2.5-2.9-2.3-7.3,0.4-10C1552.5,2706.4,1554.8,2705.5,1558.1,2703.6z"/>
<path class="st0" d="M143.8,708.9c-5.1-9.7-8.9-19.4-10.4-29.5c-1.2-8.2-1.3-16.5-0.4-24.8c1.2-10.5,12.5-19.4,24.1-20.3
	c3-0.2,6,0,7.5,0c7.5,2.8,13.6,5.5,19.9,7.4c10.6,3.2,15.2,11.2,17.7,20.9c0.5,2.1-0.1,4.6-0.7,6.8c-4.9,17.6-15.8,30.5-31.5,39.3
	C161.7,713.1,152.9,714.1,143.8,708.9z"/>
<path class="st0" d="M337.2,688.6c-1.6-2.2-3.2-4-4.2-6c-1.5-3.1-0.5-6.9,2.3-8.9c2.6-1.7,5.9-1.6,8.5,0.2c3,1.9,3.9,5.7,2.2,8.8
	c-1,2-2.9,3.5-5,5.9c-0.4,8.5-0.9,17.7-1.1,27c-0.4,22.3-1.1,44.6-0.9,66.9c0.1,21.6,1,43.1,2.7,64.7c1.9,25.5,4.4,50.9,8.3,76.2
	c5.1,33.6,12.2,66.8,22.7,99.1c11.1,34.3,24.7,67.5,42.6,98.8c13.4,23.4,28.9,45.5,46.1,66.2c5.5,6.6,11.5,12.9,17.2,19.4
	c1.4,1.9,2.8,3.8,4,5.8c-5.1-1.5-6.9-4.4-9.1-6.6c-13.6-14.6-26.2-30.1-37.8-46.4c-12.8-17.8-24.2-36.7-33.9-56.4
	c-14.8-29.9-27.4-60.6-36.4-92.8c-10.4-36.8-18-74.4-22.6-112.3c-2.5-20.8-3.8-41.6-5.5-62.5c-2.6-32.9-2.2-65.8-1.9-98.8
	c0.1-12.9,1.2-25.9,1.8-38.8C337.3,695.3,337.2,692.3,337.2,688.6z"/>
<path class="st0" d="M752,2227.5c0.6,2.4,1.7,4.7,3.3,6.8c1.8,2.7,3.9,5.2,6.3,7.5c2.1,1.6,4.3,2.9,6.7,3.9c0.5,1.9,0.6,3.9,0.4,5.8
	c-0.2,1.1-0.6,2.2-1.2,3.2c-0.7,1.2-1.5,2.4-2.5,3.4c-1.5,1.5-3.6,2.4-5.8,2.5c-1.3,0-2.6-0.4-3.5-1.3c-0.6-0.5-1.1-1-1.5-1.6
	c-1-1.5-1.7-3.2-2.1-5c-0.3-1.6-0.6-3.3-0.9-4.9c0-0.1-0.1-0.2-0.2-0.4c-0.4,0-0.9-0.1-1.4-0.1c-2.4,0-4.7-0.6-6.8-1.7
	c-3.5-1.9-4.9-5.8-3.3-9.8c0.9-2.3,2.6-4.3,4.6-5.7c2.2-1.5,4.7-2.5,7.4-2.8h0.3C752,2227.5,752,2227.5,752,2227.5z"/>
<path class="st0" d="M519,1248.3c-4.7-3.3-9-6.9-13.3-10.7s-8.5-7.6-12.5-11.5c-4.1-4-8-8-11.8-12.2c-1.9-2.1-3.8-4.2-5.6-6.4
	c-1.8-2.2-3.6-4.5-5.1-6.9c4.4,3.7,8.7,7.3,12.9,11.1c4.2,3.8,8.4,7.6,12.5,11.6c4.1,4,8,8,11.9,12.1S515.5,1243.8,519,1248.3z"/>
<path class="st0" d="M1064.8,1813.3c0-3.9,0-11.6-3.9-10.8c-3.9,0.8-18.5,17.7-17.7,25.4C1044,1835.6,1064.8,1813.3,1064.8,1813.3z"
	/>
<path class="st0" d="M1544.2,2480.1c-9.5,12.5-2.3,85.6,5.4,95.7c7.7,10.1,39.9,36.2,64.2,3.8c8.6-11.5-16.8-87-25.7-102
	C1579.2,2462.6,1557.1,2463.1,1544.2,2480.1z"/>
<path class="st0" d="M1559,2631.8c-7.5,1.9-16.5,13.7-13,24.4s43.4,10.8,46,10.3c2.6-0.5,12.3-25.3,4.4-29.1
	C1588.4,2633.7,1574,2628.2,1559,2631.8z"/>
<path class="st0" d="M1513.7,2386.7c1.2,11.8-1.6,38.6,24.1,51.4c25.7,12.9,59.5-24.6,60.2-35c0.9-13.1-21.5-43.4-30.9-49.3
	c-9.4-5.9-43.2-27.9-60.1-4.8C1490,2372.2,1513.7,2386.7,1513.7,2386.7z"/>
<path class="st0" d="M1522.1,2206.8c8.8,22,13.3,41.4,12.4,61.7c-0.3,7-2,13.9-4.9,20.3c-4,9-11.4,12.7-20.7,12.4
	c-6.8-0.1-13.5-0.9-20.1-2.3c-20.5-4.8-39.6-13.3-56.3-27.8c-11-9.5-19.6-20.9-24.2-35c-4.6-14.2-4.8-29.4-0.3-43.7
	c1.5-5.1,3.5-9.9,5.2-15c1.1-3.1,3.2-5.7,5.9-7.6c1.9-1.5,3.8-2.9,5.9-4.1c9-5,18.2-9.8,28.7-11.2c13.1-1.8,25.1,2.2,36.3,10.1
	c9.6,6.8,17,15.9,23.3,26C1517,2196.8,1520.1,2203.3,1522.1,2206.8z"/>
<path class="st0" d="M1378.8,2144.4c2.9,6.1,3.8,12.9,2.7,19.5c-2.7,16.8-19.2,28.7-38.4,18.5c-7-3.7-14.2-6.3-21.6-9
	c-12.9-4.6-25.5-9.9-36.7-17.6c-5.2-3.4-9.7-7.8-13.3-12.8c-7.6-10.9-5.5-20.2,0.5-27.7c9.9-12.4,24-16.7,39.2-13.3
	c10.5,2.3,19.8,7.2,28.6,12.9C1353.5,2123.7,1366.5,2133.6,1378.8,2144.4z"/>
<path class="st0" d="M683.6,2322.8c1.6-4.9-1.5-13.5-8.4-14.7c-6.9-1.2-20.7,21.7-21.3,23.3c-0.7,1.6,9.2,14.6,13.9,11.1
	C672.4,2339.1,680.4,2332.6,683.6,2322.8z"/>
<path class="st0" d="M696.4,2281.1c-3.3,0-9.8,0-9.1,4.1c0.7,4.1,9.1,28,21.5,18.9C714.1,2300.3,696.4,2281.1,696.4,2281.1z"/>
<path class="st0" d="M733.6,2266.4c0,3.1-0.9,6.1-2.6,8.6c-0.7,0.9-1.6,1.7-2.6,2.3c-1.5,0.9-3.3,1.1-4.9,0.5
	c-1.2-0.4-2.4-0.8-3.6-1.4c-3.3-1.5-6.2-3.8-8.4-6.7c-1.3-1.6-1.9-3.7-1.8-5.8c0.4-2.3,1.6-4.3,3.4-5.6c0.7-0.6,1.5-1.1,2.2-1.6
	c0.5-0.4,1.1-0.6,1.7-0.7c0.5-0.1,1-0.2,1.4-0.2c2.1-0.2,4.2-0.2,6.3,0.1c2.3,0.4,4.4,1.5,6,3.3c1.2,1.3,2,2.9,2.3,4.6
	C733.5,2264.9,733.5,2265.9,733.6,2266.4z"/>
<path class="st0" d="M397.7,1084.5c2.2-4.2-2.9-26.6-5.5-29.4s-12.9-9.7-18.5,1.3c-2,3.9,8.3,26.3,11.5,30.6
	S394.7,1090.2,397.7,1084.5z"/>
<path class="st0" d="M538.5,1245.5c-4-9.4-9-30.6-31.8-42.1c-22.8-11.5-38.1,16.6-35.9,24.9c2.8,10.4,27.7,35.6,36.3,40.8
	c8.7,5.2,39.8,24.3,46.4,6.8C560.1,1258.3,538.5,1245.5,538.5,1245.5z"/>
<path class="st0" d="M543.7,1405.3c-3.4-6.5-5.5-12.3-6.1-18.7c-0.2-2.2,0-4.4,0.6-6.5c0.5-2.6,2.7-4.5,5.4-4.6
	c1.9-0.2,3.9-0.2,5.8,0c6.2,0.6,12.1,2.9,17.2,6.5c3.6,2.5,6.5,5.9,8.3,9.9c1.9,4.2,2.6,8.9,1.9,13.5c-0.2,1.6-0.6,3.2-0.9,4.8
	c-0.2,1-0.7,1.9-1.4,2.6c-0.5,0.5-1,1-1.5,1.5c-2.2,2-4.9,3.6-7.7,4.6c-3.7,1-7.3,0.2-10.8-1.8c-3-1.9-5.6-4.3-7.7-7.2
	C545.5,1408.3,544.4,1406.4,543.7,1405.3z"/>
<path class="st0" d="M409.5,1147.3c-0.8-4.4-0.6-8.9,0.4-13.2c2.6-10.6,11.1-16,18.8-6.5c2.8,3.2,5.8,6.2,9,9
	c5.7,5,10.8,10.6,15,16.9c2.1,3.2,3.7,6.7,4.9,10.3c2.5,8.2,0.8,14-2.6,18.1c-5.5,6.7-12.2,7.4-18.8,3c-4.5-3.1-8.3-7.6-11.7-12.6
	C419,1164.3,414,1155.9,409.5,1147.3z"/>
<path class="st0" d="M687.9,1490.1c2.9-10.9,18.6-19.5,29.8-3c8.1-1.2,16.3-8.7,24.5-7.8c10.5,1.2,19.5,12.5,20.3,24.1
	c0.2,3,0,6,0,7.5c-2.8,7.5-18.2,7.2-18.2,7.2s18.3,28.6-10,30.4c-2.3,0.1-4.6-0.1-6.8-0.8c-17.6-4.9-30.5-15.8-39.3-31.5
	C683.7,1508,682.8,1499.2,687.9,1490.1z"/>
<path class="st0" d="M824.3,1547c0.9-1,1.5-2.1,2.4-2.6c1.1-0.6,4.2-3.9,5.5-4.2c12.1-16.3,8.4-11.3,16-22.2
	c9-9.7,9.8-11.9,14.7-18.9c3-4.2,4.7-8.3,9.4-13.1c9.8-16.4,9.8-12.3,14.6-26.4c-0.4-1.6,1.2-1.8,0.4-3.5c8.4-5.3,16.4-8.9,25.7-8.3
	c9.9,0.7,15.1,6.9,17.4,15c1.9,6.6,1.7,13.7-0.5,20.2c-1.1,3.3-3.5,5.3-5.3,8.1c1.2,2.1,3.4,2.3,5.3,2.9c7.7,2.4,14.4,7.4,19,14.1
	c9.8,14.2,6.5,33.5-7.4,43.7c-9.8,7.3-20.9,8.8-32.6,7.3c-5.1-0.7-10-1.9-15.4-3c0.3,0.9,0.6,1.9,0.9,2.8c5.5,12.3-2.2,24-12.6,27.6
	c-9.9,3.5-19.4,2.5-28.7-2.4c-12-6.3-20.3-16-26.8-27.5C825,1554.5,825.9,1550,824.3,1547z"/>
<path class="st0" d="M647.5,1384.6c-10.5-11-17.1-22.3-19.5-36.5c-0.8-5.4-0.5-10.8,0.8-16.1c1.9-8,7.2-13.9,14.7-17.9
	c5.3-2.9,10.8-5.4,16.5-7.5c17.2-6,27.8-8.9,43.5-6.6c10.3,1.5,18.9,5.4,24.8,12.9c6.2,7.9,14.2,18,13,29.7
	c-0.4,4.2-1.3,8.4-1.9,12.6c-0.5,2.9-1.7,5.6-3.5,7.9c-1.3,1.9-2.6,3.7-4.1,5.5c-6.5,7.6-9.7,24.6-17.9,30.3
	c-10.3,7.2-19.2,9.4-29.4,9.1c-8.8-0.3-20.8-12.3-27.3-16.4C653.2,1389.1,649.6,1386.1,647.5,1384.6z"/>
<path class="st0" d="M328.2,882c-3.9,0.2-7.7-1.1-10.6-3.6c-8-6.5-10-20.9-0.1-30.9c3.6-3.8,6.9-7.8,9.9-12
	c5.5-7.4,11.3-14.4,18-19.7c2.9-2.4,6.2-4.2,9.8-5.3c7.4-2.1,11.6,1.9,14,8.1c3.9,10.1,2.7,20.8-2.8,30c-3.6,5.9-8.2,11.2-13.5,15.6
	C345.1,870.6,336.8,876.6,328.2,882z"/>
<path class="st0" d="M790.5,1590.3c4.8,6.7,8.6,13.5,10.5,20.7c1.5,5.9,2.1,11.9,1.9,18c-0.3,7.7-9.1,15-18.7,16.4
	c-2.5,0.4-5,0.4-6.2,0.6c-6.4-1.5-11.6-3-16.9-3.9c-9-1.5-13.2-7.1-15.9-13.9c-0.6-1.5-0.2-3.4,0.2-5c2.9-13.1,11.2-23.3,23.7-30.8
	C775.4,1588.5,782.6,1587.2,790.5,1590.3z"/>
<path class="st0" d="M427.7,1460.5c7.3-0.9,28.1-25.7,28.6-31.2c0.6-5.5-2.3-23.6-21.1-21.1c-6.7,0.9-21.9,32-23.6,39.4
	S417.8,1461.7,427.7,1460.5z"/>
<path class="st0" d="M537.8,2522.3c-3.2-6.4-4.8-12.3-4.4-19.1c0.2-2.5,0.8-4.9,1.9-7.1c1.4-3.1,4.3-5.4,7.7-6
	c2.4-0.6,4.9-0.9,7.5-1.1c7.6-0.3,14.6,0.8,20.8,4c4,1.9,7.1,5.2,8.9,9.3c1.7,4.4,1.6,9.2,0,14.3c-0.6,1.8-1.3,3.6-2,5.4
	c-0.5,1.2-1.2,2.2-2.2,3c-0.7,0.7-1.4,1.3-2.2,1.9c-3.2,2.6-6.8,4.7-10.7,6.3c-4.3,1.7-9.1,1.7-13.4,0c-3.4-1.3-6.3-3.5-8.6-6.4
	C539.6,2525.1,538.5,2523.3,537.8,2522.3z"/>
</svg>
