<svg id="Layer_1" data-name="Layer 1" xmlns="http://www.w3.org/2000/svg" width="24.64in" height="46.67in" viewBox="0 0 1774.08 3360.24">
  <defs>
    <style>
      .cls-1 {
        fill: #ffcc02;
      }
    </style>
  </defs>
  <path class="cls-1" d="M949.12,2002.93c3.53.17,6-.19,8.11.48,6.17,2,8.1,11.33,3.33,15.65a8,8,0,0,1-8.36,1.85,7.68,7.68,0,0,1-5.42-6.58c-.28-2.62-.06-5.29-.06-8.81-135.93-126.72-289.74-226-463-295.92-1.54,10.12.48,19.31,1,28.52.61,11.59,1.62,23.17,2.45,34.76.91,12.93,1.87,25.84,2.71,38.76s1.55,25.87,2.31,38.8c1,16.57,2,33.14,2.89,49.72q.69,12.45,1.07,24.92c.41,13,.59,25.94,1,38.9.56,16,1.3,31.89,1.93,47.83.11,2.66,0,5.33,0,8,0,47.67.16,95.33-.09,143-.08,15.6-1.25,31.21-1.87,46.82-.39,10-.55,19.94-1,29.9-.83,16.25-1.86,32.49-2.8,48.74-.74,12.6-1.31,25.22-2.26,37.8-1.16,15.57-2.36,31.13-4,46.64-3.79,35-7.55,70-12,104.87-7.61,60.41-18.41,120.28-30.89,179.85q-17,81.17-40.62,160.66c-7.27,24.56-15.68,48.79-23.58,73.17-1.74,5.38-3.53,10.76-5.55,16.9,2.33,1.28,4.48,2.68,6.79,3.68,15,6.49,19.95,19.71,22.54,34.19.59,3.32-.65,7.35-2.12,10.56a75,75,0,0,1-7.79,12.69c-5.68,7.8-13.94,10.68-22.92,8.78-17.71-3.75-30.84-14.17-37.92-30.9-5-11.71-2.25-25.85,6.4-33.14a28,28,0,0,1,17.18-7c4.32-.2,8.66,0,13.58,0a35.53,35.53,0,0,0,2-4c13.22-37.37,25.27-75.1,35.55-113.38,7.41-27.64,15.23-55.21,21.81-83,7.27-30.74,13.59-61.72,19.85-92.7,12.39-61.27,21.21-123.12,28.23-185.22,3.24-28.69,6-57.43,8.81-86.17,1.08-11.24,1.47-22.54,2.24-33.8.91-13.25,2-26.49,2.82-39.74.49-7.29.82-14.59,1.12-21.89.41-10.3.67-20.61,1.08-30.91.61-15.29,1.3-30.56,1.93-45.83.1-2.66.06-5.33.06-8,0-38.33.12-76.66,0-115-.1-23.3-.49-46.61-1-69.91-.41-17.61-1.21-35.21-2-52.81-.9-20.59-1.76-41.17-3-61.72-1.41-23.2-3.3-46.36-4.87-69.55-1.12-16.57-2-33.15-3.08-49.72q-1-15.4-2.15-30.8a41.81,41.81,0,0,0-1.45-6.14c-5.45-2.4-11-4.74-16.38-7.21-25.74-11.73-51.71-23-77.13-35.37-24-11.73-46-26.7-64.6-46.28-10.16-10.71-18.92-22.34-24.87-35.92-.56-1.29-.6-2.8.57-4.87a27.53,27.53,0,0,1,3.17,4.41c11.75,25.71,31.38,44.16,54.21,59.94,17.09,11.81,35.47,21.17,54.14,29.95,20.17,9.49,40.69,18.2,61.1,27.18,2.68,1.18,5.56,1.92,8.39,2.89,1.63-7.68-4.39-91.39-7.73-108.46-12.62-8-25.56-16.15-38.42-24.4-18.76-12-37.64-24-54.67-38.42-7.58-6.43-14.51-13.68-21.41-20.86-2.92-3-5.29-6.77-4.16-12,1.14.82,2.28,1.19,2.57,1.92,4.33,10.57,12.32,18,20.9,25,21.44,17.51,44.55,32.63,67.9,47.4,6.75,4.27,13.52,8.52,20.33,12.69a59.62,59.62,0,0,0,6.09,2.78c1.6-10.29-.62-19.73-1.11-29.19-.52-9.94-1.48-19.86-2.21-29.79-.7-9.6-1.44-19.2-2-28.82s-.93-19.21-1.38-28.88c-14.19-10.81-28.25-21.37-42.15-32.15-13.48-10.47-26.62-21.34-37.66-34.52,7.67,3.39,12.8,9.94,19.24,14.82,6.61,5,12.65,10.78,19.09,16,6.19,5,12.45,10,18.92,14.69,6.63,4.79,12.82,10.34,20.82,13.74,1.78-5.51,1-10.52,1-15.44-.09-8.3-.64-16.59-.88-24.9-.13-4.66,0-9.33,0-14a416.57,416.57,0,0,1,6-78.45c4.58-26.23,9.14-52.45,17.55-77.79,4.28-12.93,8.63-25.87,13.64-38.54a395.73,395.73,0,0,1,80.34-125.07A412.58,412.58,0,0,1,632.63,1040a425.43,425.43,0,0,1,65-39A507.26,507.26,0,0,1,801.8,963.88a593.32,593.32,0,0,1,85.56-13.78,522.76,522.76,0,0,1,63.81-2.24,685.15,685.15,0,0,1,140.1,18.58,542.65,542.65,0,0,1,132,50.8c36.18,19.67,69,44,97.39,74,4.56,4.83,9,9.8,13.42,14.69,1.93-1.17,3.66-2.83,5.64-3.24,1.76-.35,3.91.45,5.69,1.21a17,17,0,0,1,5,3.23c9.67,9.17,19.37,18.36,25.77,30.29a46.48,46.48,0,0,1,4.45,11c1.71,7.21-2,11.73-9.32,11.83-10.9.16-18.21-6-23.12-14.79-3-5.44-4.85-11.64-6.67-17.66a54.19,54.19,0,0,0-9.91-19.3c-20-24.41-43.52-44.87-69.22-63a457.36,457.36,0,0,0-71.94-41,562.51,562.51,0,0,0-81.42-29.88c-34.63-9.9-70-15.84-105.71-20.14-12.84-1.54-25.86-1.64-38.8-2.24-10-.47-19.94-1-29.9-1A597.93,597.93,0,0,0,812,965.08,499,499,0,0,0,710.76,998.5a438.34,438.34,0,0,0-76.62,44.73,386.24,386.24,0,0,0-110,122.3c-17.87,31.08-30.87,64.09-41,98.36-8.66,29.46-13.24,59.72-17.66,90-1.87,12.78-2,25.84-2.38,38.79-.38,12-.25,24,0,36,.23,12.63.81,25.25,1.27,38.74,3.91,2.84,8,6.16,12.46,9Q536.8,1514.34,596.8,1552c40.67,25.39,81.1,51.13,119.16,80.39,22.42,17.24,44.23,35.19,64.6,54.84,7.43,7.15,15,14.11,22.45,21.3,18.63,18.12,35.45,37.87,51.87,58a60.64,60.64,0,0,1,4.25,6.63c.08.13-.28.53-.78,1.4a30.24,30.24,0,0,1-4.13-3.63,718.38,718.38,0,0,0-67.81-74.5c-19.27-18.36-39.62-35.48-60.46-52-38.64-30.71-80-57.46-121.68-83.74-43.64-27.51-88.25-53.47-130.89-82.57-2.11-1.45-4.38-2.66-6.25-3.78-1,.57-1.27.67-1.43.89a1.69,1.69,0,0,0-.35.93,50.14,50.14,0,0,0-.21,6q3.6,51.68,7.34,103.35a50.4,50.4,0,0,0,1.38,6.43c13.88,8.51,28.08,17.11,42.19,25.88,36.45,22.67,73.42,44.57,107.6,70.67,8.69,6.64,17,13.85,25.32,20.92.76.65.77,2.19,1.49,4.48-2.28-.76-3.91-.78-4.46-1.56-5.47-7.77-13.5-12.68-20.73-18.4-19.35-15.29-39.89-28.89-60.89-41.81-25.79-15.89-51.43-32-77.21-47.91-3.59-2.21-6.95-5.08-11.26-5.89-2.68,2.71-1.91,5.87-1.71,8.65.94,13.24,2.19,26.45,3.25,39.69,1.26,15.55,2.41,31.11,3.67,46.66.3,3.61.87,7.2,1.41,11.55,85.73,35.86,168.83,77,247.12,127.46S880.71,1939.93,949.12,2002.93Z"/>
  <path class="cls-1" d="M399.38,3036.34c13.14-13.55,20.81-30.55,27.85-47.72a384.27,384.27,0,0,0,21.33-70.37c2.41-12.07.66-46.83-1.42-59,0,0,15.28-17.64,32.94-25.64a53.52,53.52,0,0,1,23.13-5.2c9.64.15,19.25-.42,28.7,2.43,15.29,4.61,27.26,13.45,35.73,27,5.38,8.6,6.34,18.17,5.21,27.89a60,60,0,0,1-4,16.37c-5.2,12.31-12.07,23.74-21.58,33.29-8.43,8.48-17.17,16.66-25.74,25a12.81,12.81,0,0,0-1.37,2.52c1.31,2.78,2.7,6.12,4.39,9.3a119.5,119.5,0,0,1,14.31,50.34c1.57,30.27-16.57,54.38-45.42,60.24-17.76,3.61-34.09.08-50.17-7.22-17.78-8.07-31.34-21-42.85-36.34a9,9,0,0,1-1-1.73A3.4,3.4,0,0,1,399.38,3036.34Z"/>
  <path class="cls-1" d="M337.17,2847.78c-.48,2.27-.46,4.39-1.39,5.92a21.44,21.44,0,0,1-4.78,5.05c-18.32,15.45-32.12,34.41-43.09,55.56-7,13.44-10.61,27.91-12.16,42.84-.92,9,.84,17.85,2.92,26.56,5.17,21.6,16.43,39.79,31.84,55.53,2.09,2.13,4.72,3.72,7.35,5.75-8.21,15.21-17.27,27.72-31.93,34.72-15.62,7.45-28.78,2.49-39.15-8a59.57,59.57,0,0,1-16.46-31.27c-1.15-6,.75-11.12,1.15-16.86-3.62-2.11-7.08-.53-10.56.13-14.15,2.69-27.9,1.22-40.75-5.22-27.44-13.76-38.14-45.7-26-73,8.59-19.43,24.12-31.4,43.2-39.17,8.22-3.35,16.87-5.66,25.94-8.65a50.51,50.51,0,0,0-3.73-3.43c-18.75-14-17.07-38.5-4.53-52.95,12-13.83,27.23-20.41,45.59-21,23.55-.72,44.37,7,64,19C328.53,2841.78,332.26,2844.52,337.17,2847.78Z"/>
  <path class="cls-1" d="M862.76,224.19c-.63,27.23-5,49.83-16,70.91a63.39,63.39,0,0,1-15.63,19.24c-9,7.67-19.43,8.34-29.95,3.85a136.1,136.1,0,0,1-22.06-11.53c-21.27-14.26-39.12-31.92-51.29-54.78-8-15-12.31-31-10.74-47.92,1.63-17.72,9.11-33.19,21-46.38,4.24-4.68,9-8.94,13.37-13.47A20.14,20.14,0,0,1,762,138.73a67.36,67.36,0,0,1,8.78-1.7c12.91-1.25,25.78-2.15,38.63,1.07,16,4,27.87,13.66,36.92,27,7.77,11.48,11.86,24.47,14.07,38C861.76,211.29,862.29,219.58,862.76,224.19Z"/>
  <path class="cls-1" d="M1321.93,293.4c-.82-2.64-3.63-3.17-4.5-6-1.22-.27-3.27-6.93-4.54-7.07-18.3-2-33.07-2.08-49.67-10.18-12.85-6.28-23.38-15-30.14-27.94a43,43,0,0,1-4.63-17.16c-1.47-20.13,5.84-37.26,18.37-52.28a103.67,103.67,0,0,1,21.43-19.38,54.23,54.23,0,0,1,36.94-9.23c10.43,1,17.41,7.81,22.89,16,5,7.58,7,16.46,8.79,25.25.94,4.51,1.49,9.1,2.29,14.17,5.67-1.54,11-3.15,16.38-4.42,10-2.36,20-4.76,30.41-4.64,7,.07,13,2,18,7.7.75,2.59,1.58,5.44,2.66,9.18-1.56,5-2.87,10.83-5.23,16.24-5.8,13.26-14.8,24.43-24.44,35-5.59,6.16-11.68,11.89-17.63,17.71a89,89,0,0,1-22.84,16C1332.11,294.53,1327.72,295.45,1321.93,293.4Z"/>
  <path class="cls-1" d="M1070.33,316.4c-15.66,1.43-27.37-5.14-38.45-12.55-15.78-10.56-27.21-25.31-36.86-41.45a110.4,110.4,0,0,1-15.7-49.92A52,52,0,0,1,986,183.71c5-8.93,12.84-15,22.21-19.23,8.57-3.83,16.83-4.61,25.81-.46a103.38,103.38,0,0,1,27.27,18c24.65,22.66,37.23,51.42,43.09,83.55,1.77,9.68,3.73,19.63.68,29.55-.88,2.86-1.27,5.93-2.58,8.56-1.12,2.26-2.84,5.08-5,5.87C1088.25,313,1079.61,319.17,1070.33,316.4Z"/>
  <path class="cls-1" d="M838.18,2235.54c-12.68,4.08-46.12,26-71.2,46.38-22.22,18-43.61,36.91-62,59-18,21.71-34.9,44.23-49.56,68.43l-1.81-.84c.09-1-.17-2.28.31-3.06,13.23-21.59,27.47-42.46,44.44-61.33,9.76-10.87,19.23-22.07,29.66-32.28a498.43,498.43,0,0,1,81-64.46,515.42,515.42,0,0,1,125.6-58A547.19,547.19,0,0,1,1041,2167.75a509.1,509.1,0,0,1,67.74-2.76,559.19,559.19,0,0,1,74.28,7.52,469,469,0,0,1,95,26.3,433.89,433.89,0,0,1,91.26,49,415.35,415.35,0,0,1,61.66,53.63,404.17,404.17,0,0,1,60.43,82.71,428.72,428.72,0,0,1,35.56,84.63,502.51,502.51,0,0,1,19.59,101.66c2,23.56,3.5,47.13,2.74,70.73-.66,20.57-2.08,41.13-4,61.63-4,42.82-12.2,84.93-22.86,126.53-6.2,24.15-13.63,48-20.51,72-.35,1.23-.76,2.44-1.1,3.53,16.54,12.56,20.94,24.09,14,37.18-6,11.44-17,15.66-29.64,12.86-12.19-2.7-19.62-14.86-18.25-28.4,1.32-13,11.06-20.53,28.64-22,10.08-15.35,41-141.16,40.92-165.92-.29-.17-.57-.36-.86-.51a3.08,3.08,0,0,0-1.89-.5l-1-.07H842.89a3.44,3.44,0,0,1-1-.1,4.92,4.92,0,0,1-1-.2,2.4,2.4,0,0,1-.55-.34,7.92,7.92,0,0,1-.94-.89,2.78,2.78,0,0,1-.28-.93c-.09-.65-.17-1.32-.2-2s0-1.34,0-2V2239.11a7.49,7.49,0,0,0-.23-2C838.58,2236.76,838.46,2236.45,838.18,2235.54Zm2.48-2.56v487.75c0,2.67-.1,5.34,0,8,.09,1.91.5,3.82.78,5.83,4.61,1.91,9,1.14,13.21,1.14h670c2.34,0,4.68.1,7,0,1.91-.11,3.8-.51,5.53-.76a16.15,16.15,0,0,0,1.3-3.27c2-15.78,4.51-31.52,5.72-47.36,1.24-16.23,1.45-32.57,1.62-48.86.12-11.63-.36-23.27-.94-34.89-.64-12.61-1.35-25.23-2.64-37.77a515.92,515.92,0,0,0-15.4-81.26,456.89,456.89,0,0,0-33.9-87.29,358,358,0,0,0-33.87-54.1c-8-10.61-15.72-21.61-24.93-31.13-15.49-16-31.38-31.65-49.17-45.27-18.82-14.4-38.35-27.72-59.18-38.88a460.68,460.68,0,0,0-112.62-42.76,508.85,508.85,0,0,0-171.34-10.88,538.51,538.51,0,0,0-147.78,36.36,445.14,445.14,0,0,0-53.4,25.4Z"/>
  <path class="cls-1" d="M542.16,365.81a44.13,44.13,0,0,1-4.27,25.2c-9.58,19.73-33.71,27.81-52.43,7.46-6.83-7.42-14.38-13.54-22.1-19.79-13.42-10.87-26.3-22.41-36.58-36.47A68.67,68.67,0,0,1,416.07,321c-4.85-16.5,1.24-27.11,11.2-34,16.42-11.41,34.74-11,51.39-.7,11.44,7.09,20.64,16.84,28.78,27.35A457.4,457.4,0,0,1,542.16,365.81Z"/>
  <path class="cls-1" d="M1578.22,2736.8c2.6-22.21,5.24-44.29,7.74-66.39a530.74,530.74,0,0,0,3-69.73c-.67-35.63-3.85-71-10.74-106a464.53,464.53,0,0,0-25.73-85.9c-15.79-38.73-36.66-74.65-63.57-106.85-7.46-8.92-14.89-17.93-23-26.2a442.55,442.55,0,0,0-49-42.47,451.93,451.93,0,0,0-67-41.33,446.91,446.91,0,0,0-55.09-23.39,555,555,0,0,0-112.5-26.52c-13.82-1.77-27.77-2.88-41.69-3.43-19.61-.79-39.3-1.66-58.89-.88a620.8,620.8,0,0,0-69.39,6.63,628.22,628.22,0,0,0-144.78,40.41,546.71,546.71,0,0,0-122.11,69.35c-24.41,18.48-47.82,38.25-68,61.5-15.25,17.58-30,35.53-43.13,55.49,3.6,8.17,4,10.9.85,20.1-11.23,11.59-29.61,19.39-44.09,16.6-14-2.33-17.62-19-8.93-29.94,10.6-6.64,30.56-10.42,48.76-8.45,1.65-2.14,3.13-3.92,4.45-5.81,17.94-25.73,37.79-49.87,60.48-71.56a534.32,534.32,0,0,1,110.5-81.6,599.77,599.77,0,0,1,89.93-40.69A556.56,556.56,0,0,1,983.88,2146c17.32-3.13,34.74-5.91,52.19-8.19,11.83-1.55,23.79-2.29,35.72-2.79,16-.66,31.93-1,47.9-1,35.35.11,70.26,4.61,104.87,11.52a533.59,533.59,0,0,1,70.25,19.27,478,478,0,0,1,72.75,32.71,425.79,425.79,0,0,1,59.13,38.88c9.39,7.39,18.28,15.49,27,23.7,9.43,8.88,18.86,17.84,27.42,27.54,9.66,11,18.79,22.44,27.39,34.27,25.66,35.28,44.7,74,58.23,115.42a536.51,536.51,0,0,1,22.45,104.2c1.43,12.18,1.73,24.5,2.3,36.78.52,11,.79,21.94,1,32.91.54,28-2.18,55.76-5.39,83.49-1.34,11.55-3,23.07-4.72,34.56-.76,5-1.61,9.73.58,14.64a6.22,6.22,0,0,1-2.23,8c-3.21,2.3-7.61,2-10-.79a7.43,7.43,0,0,1,.42-10C1572.7,2739.6,1575,2738.72,1578.22,2736.8Z"/>
  <path class="cls-1" d="M326.88,701.25c-5.05-9.71-8.9-19.37-10.43-29.52a97.41,97.41,0,0,1-.38-24.78c1.15-10.53,12.46-19.44,24.07-20.28,3-.21,6,0,7.52,0,7.49,2.8,13.56,5.47,19.86,7.35,10.6,3.15,15.15,11.2,17.68,20.89.54,2.07-.14,4.6-.74,6.78-4.87,17.59-15.75,30.55-31.52,39.27C344.72,705.43,336,706.43,326.88,701.25Z"/>
  <path class="cls-1" d="M216.48,858.94c-1.6-2.22-3.24-4-4.24-6a7,7,0,0,1,2.33-8.86,7.57,7.57,0,0,1,8.45.17,6.55,6.55,0,0,1,2.21,8.8c-1,2-2.92,3.48-5,5.92-.35,8.46-.92,17.72-1.11,27-.43,22.29-1.07,44.58-.9,66.87q.22,32.37,2.66,64.69c1.88,25.51,4.4,50.92,8.27,76.2,5.14,33.57,12.22,66.76,22.68,99.08,11.08,34.26,24.71,67.54,42.59,98.85a464.6,464.6,0,0,0,46.13,66.23c5.52,6.65,11.51,12.9,17.22,19.39a65.92,65.92,0,0,1,4,5.82c-5.1-1.49-6.93-4.37-9.07-6.63A457.41,457.41,0,0,1,315,1330.1a394.69,394.69,0,0,1-33.87-56.38c-14.8-29.85-27.42-60.61-36.44-92.78a743.54,743.54,0,0,1-22.59-112.34c-2.48-20.75-3.84-41.63-5.47-62.47-2.58-32.87-2.17-65.83-1.94-98.77.1-12.93,1.23-25.86,1.82-38.79C216.6,865.59,216.48,862.59,216.48,858.94Z"/>
  <path class="cls-1" d="M772.22,2260.76a18.94,18.94,0,0,0,3.25,6.75,47.22,47.22,0,0,0,6.3,7.52,31.3,31.3,0,0,0,6.74,3.92,16.41,16.41,0,0,1,.37,5.84,8.18,8.18,0,0,1-1.17,3.21,16.21,16.21,0,0,1-2.46,3.36,8.78,8.78,0,0,1-5.75,2.53,5,5,0,0,1-3.53-1.29,6.86,6.86,0,0,1-1.54-1.64,13.4,13.4,0,0,1-2.1-5c-.31-1.62-.57-3.27-.85-4.9a2.31,2.31,0,0,0-.18-.35c-.42,0-.9-.09-1.38-.1a14.57,14.57,0,0,1-6.75-1.74c-3.53-1.91-4.86-5.82-3.32-9.78a12.49,12.49,0,0,1,4.63-5.68,15.73,15.73,0,0,1,7.35-2.75h.26Z"/>
  <path class="cls-1" d="M398.27,1418.63c-4.66-3.32-9-6.93-13.32-10.66s-8.45-7.55-12.52-11.5-8-8-11.85-12.22c-1.92-2.08-3.77-4.24-5.61-6.42a76,76,0,0,1-5.13-6.86c4.36,3.68,8.74,7.27,12.94,11.07s8.43,7.59,12.49,11.59,8,8,11.89,12.14A169.81,169.81,0,0,1,398.27,1418.63Z"/>
  <path class="cls-1" d="M944.14,1983.56c0-3.86,0-11.56-3.86-10.79s-18.49,17.72-17.72,25.42S944.14,1983.56,944.14,1983.56Z"/>
  <path class="cls-1" d="M1564.39,2513.32c-9.53,12.54-2.27,85.59,5.43,95.7s39.89,36.24,64.2,3.76c8.6-11.5-16.75-87-25.68-102S1577.31,2496.29,1564.39,2513.32Z"/>
  <path class="cls-1" d="M1579.16,2665.06c-7.52,1.85-16.48,13.66-13,24.37s43.39,10.76,46,10.3,12.29-25.32,4.37-29.05S1594.16,2661.37,1579.16,2665.06Z"/>
  <path class="cls-1" d="M1533.87,2419.91c1.18,11.78-1.64,38.57,24.06,51.45s59.51-24.58,60.21-35c.87-13.06-21.48-43.37-30.92-49.3s-43.21-27.87-60.11-4.77S1533.87,2419.91,1533.87,2419.91Z"/>
  <path class="cls-1" d="M1542.24,2240c8.8,22,13.29,41.41,12.42,61.71a54.78,54.78,0,0,1-4.93,20.28c-4,8.95-11.43,12.73-20.67,12.41a104.65,104.65,0,0,1-20.11-2.34c-20.45-4.78-39.55-13.33-56.25-27.84-11-9.5-19.57-20.94-24.2-35a71.82,71.82,0,0,1-.33-43.68c1.52-5.07,3.53-9.94,5.23-14.95a15.72,15.72,0,0,1,5.86-7.58,51.74,51.74,0,0,1,5.87-4.09c9-5,18.19-9.77,28.71-11.19,13.14-1.78,25.1,2.24,36.28,10.11,9.61,6.77,17,15.89,23.26,26C1537.12,2230,1540.31,2236.49,1542.24,2240Z"/>
  <path class="cls-1" d="M1399,2177.58a32.62,32.62,0,0,1,2.71,19.51c-2.65,16.82-19.23,28.73-38.4,18.49-7-3.73-14.23-6.33-21.63-9-12.86-4.63-25.48-9.86-36.69-17.61a51.93,51.93,0,0,1-13.28-12.83c-7.63-10.88-5.49-20.16.5-27.7,9.88-12.44,24-16.7,39.22-13.29,10.45,2.34,19.82,7.2,28.55,12.86A351.46,351.46,0,0,1,1399,2177.58Z"/>
  <path class="cls-1" d="M703.76,2356c1.62-4.86-1.53-13.51-8.41-14.7S674.68,2363,674,2364.65s9.15,14.58,13.87,11.14S700.54,2365.77,703.76,2356Z"/>
  <path class="cls-1" d="M716.57,2314.29c-3.26,0-9.79,0-9.13,4.12s9.13,28,21.52,18.94C734.27,2333.48,716.57,2314.29,716.57,2314.29Z"/>
  <path class="cls-1" d="M753.79,2299.65a15.15,15.15,0,0,1-2.61,8.61,8.89,8.89,0,0,1-2.55,2.34,5.59,5.59,0,0,1-4.89.46,24.72,24.72,0,0,1-3.61-1.4,22.16,22.16,0,0,1-8.37-6.65,8.2,8.2,0,0,1-1.76-5.82,8.81,8.81,0,0,1,3.44-5.63c.69-.57,1.46-1.08,2.18-1.63a3.94,3.94,0,0,1,1.71-.66,14.24,14.24,0,0,1,1.44-.2,25.06,25.06,0,0,1,6.3.13,10.55,10.55,0,0,1,6,3.28,10,10,0,0,1,2.3,4.61A18.43,18.43,0,0,1,753.79,2299.65Z"/>
  <path class="cls-1" d="M277,1254.76c2.2-4.24-2.85-26.6-5.46-29.44s-12.85-9.71-18.46,1.3c-2,3.88,8.33,26.33,11.49,30.63S274,1260.52,277,1254.76Z"/>
  <path class="cls-1" d="M417.74,1415.84c-4-9.44-9-30.63-31.75-42.14s-38.13,16.63-35.88,24.91c2.82,10.36,27.67,35.59,36.33,40.78s39.84,24.32,46.38,6.76S417.74,1415.84,417.74,1415.84Z"/>
  <path class="cls-1" d="M423,1575.64c-3.41-6.48-5.48-12.33-6.06-18.65a18.1,18.1,0,0,1,.57-6.47,5.79,5.79,0,0,1,5.39-4.62,27.05,27.05,0,0,1,5.83,0,35.93,35.93,0,0,1,17.18,6.5,24.67,24.67,0,0,1,8.33,9.94,24.24,24.24,0,0,1,1.88,13.52c-.23,1.63-.6,3.21-.88,4.83a5,5,0,0,1-1.36,2.56,15.17,15.17,0,0,1-1.51,1.49,22.38,22.38,0,0,1-7.73,4.55c-3.67,1-7.25.25-10.76-1.77a26.16,26.16,0,0,1-7.7-7.19C424.83,1578.64,423.65,1576.7,423,1575.64Z"/>
  <path class="cls-1" d="M288.77,1317.62a31.4,31.4,0,0,1,.43-13.16c2.61-10.62,11.07-16,18.83-6.51a84,84,0,0,0,9,9,87.26,87.26,0,0,1,15,16.87,40,40,0,0,1,4.86,10.33c2.52,8.23.77,14-2.57,18.06-5.49,6.7-12.2,7.42-18.75,3-4.5-3.06-8.3-7.6-11.74-12.58A242.76,242.76,0,0,1,288.77,1317.62Z"/>
  <path class="cls-1" d="M567.22,1660.44c2.85-10.89,18.58-19.54,29.81-3,8.12-1.22,16.32-8.66,24.48-7.77,10.54,1.16,19.45,12.46,20.28,24.08.22,3,0,6,0,7.51-2.8,7.49-18.21,7.16-18.21,7.16s18.29,28.57-10,30.39a21.58,21.58,0,0,1-6.78-.75c-17.58-4.87-30.53-15.75-39.26-31.52C563,1678.29,562.08,1669.53,567.22,1660.44Z"/>
  <path class="cls-1" d="M703.61,1717.34c.89-1,1.46-2.06,2.36-2.56,1.13-.63,4.18-3.91,5.49-4.15,12.1-16.28,8.42-11.29,16-22.18,9-9.73,9.78-11.86,14.73-18.86,3-4.2,4.67-8.34,9.35-13.08,9.81-16.43,9.75-12.31,14.57-26.38-.44-1.64,1.19-1.77.44-3.52,8.38-5.25,16.43-8.93,25.75-8.27,9.92.7,15.13,6.88,17.4,15a33.94,33.94,0,0,1-.51,20.22c-1.09,3.29-3.48,5.33-5.29,8.07,1.22,2.07,3.4,2.26,5.33,2.91a36.27,36.27,0,0,1,19,14.1,31.76,31.76,0,0,1-7.38,43.7c-9.75,7.25-20.9,8.82-32.65,7.3-5.06-.65-10-1.94-15.44-3a28.8,28.8,0,0,0,.92,2.76c5.49,12.25-2.23,24-12.56,27.64-9.9,3.5-19.37,2.48-28.74-2.43-12-6.29-20.3-16-26.76-27.52C704.29,1724.76,705.14,1720.33,703.61,1717.34Z"/>
  <path class="cls-1" d="M526.8,1554.89c-10.47-11-17.08-22.26-19.54-36.53a41,41,0,0,1,.81-16.1c1.86-8,7.2-13.9,14.67-17.89a121.43,121.43,0,0,1,16.49-7.54c17.16-6,27.81-8.87,43.46-6.57,10.26,1.51,18.94,5.41,24.83,12.92,6.15,7.85,14.24,18,13,29.71-.43,4.16-1.29,8.4-1.87,12.59a18.17,18.17,0,0,1-3.53,7.85c-1.31,1.85-2.59,3.74-4.07,5.47-6.48,7.55-9.72,24.55-17.94,30.31-10.27,7.19-19.21,9.43-29.4,9.14C555,1578,543,1566,536.38,1561.88,532.45,1559.41,528.89,1556.43,526.8,1554.89Z"/>
  <path class="cls-1" d="M207.46,1052.29a15,15,0,0,1-10.63-3.62c-8-6.46-10-20.9-.07-30.91a114.71,114.71,0,0,0,9.88-12c5.51-7.35,11.26-14.35,18-19.72a27.91,27.91,0,0,1,9.8-5.31c7.42-2.09,11.64,1.94,14,8.06,3.94,10.09,2.66,20.76-2.79,30a61.69,61.69,0,0,1-13.54,15.57A206.17,206.17,0,0,1,207.46,1052.29Z"/>
  <path class="cls-1" d="M669.78,1760.65c4.78,6.71,8.57,13.45,10.46,20.72a62.1,62.1,0,0,1,1.86,18c-.3,7.74-9.11,15-18.68,16.44-2.45.37-5,.45-6.22.56-6.39-1.51-11.59-3-16.93-3.94-9-1.54-13.24-7.07-15.94-13.93-.57-1.46-.16-3.35.2-5,2.94-13.14,11.15-23.32,23.67-30.78C654.72,1758.85,661.92,1757.55,669.78,1760.65Z"/>
  <path class="cls-1" d="M307,1630.81c7.31-.9,28.08-25.66,28.63-31.18s-2.3-23.58-21.1-21.13c-6.65.86-21.93,32-23.6,39.41S297.05,1632,307,1630.81Z"/>
  <path class="cls-1" d="M417.06,2692.57c-3.2-6.39-4.8-12.34-4.42-19.07a19.43,19.43,0,0,1,1.88-7.09,10.49,10.49,0,0,1,7.7-6,44.57,44.57,0,0,1,7.45-1.06c7.56-.31,14.62.76,20.77,4a18,18,0,0,1,8.87,9.25c1.74,4.37,1.62,9.2,0,14.27-.57,1.8-1.33,3.58-2,5.37a7.65,7.65,0,0,1-2.19,3,26,26,0,0,1-2.19,1.87,43.4,43.4,0,0,1-10.67,6.28,18.6,18.6,0,0,1-13.42,0,20.45,20.45,0,0,1-8.55-6.4C418.93,2695.39,417.77,2693.56,417.06,2692.57Z"/>
</svg>
